<svg width="1807" height="1347" viewBox="0 0 1807 1347" fill="none" xmlns="http://www.w3.org/2000/svg">
<g opacity="0.1">
<rect x="502" y="279" width="22.7216" height="22.7216" rx="6.3" fill="#B6B6B6"/>
<rect x="904" y="93" width="22.7216" height="22.7216" rx="6.3" fill="#B6B6B6"/>
<rect x="619" width="22.7216" height="22.7216" rx="6.3" fill="#B6B6B6"/>
<rect x="584" y="622" width="22.7216" height="22.7216" rx="6.3" fill="#B6B6B6"/>
<rect x="607" y="1301" width="22.7216" height="22.7216" rx="6.3" fill="#B6B6B6"/>
<rect x="1123" y="1313" width="22.7216" height="22.7216" rx="6.3" fill="#B6B6B6"/>
<rect x="1381" y="1324" width="22.7216" height="22.7216" rx="6.3" fill="#B6B6B6"/>
<rect x="238" y="510" width="22.7216" height="22.7216" rx="6.3" fill="#B6B6B6"/>
<rect y="725" width="22.7216" height="22.7216" rx="6.3" fill="#B6B6B6"/>
<rect x="47" y="302" width="22.7216" height="22.7216" rx="6.3" fill="#B6B6B6"/>
<rect x="799" y="347" width="22.7216" height="22.7216" rx="6.3" fill="#B6B6B6"/>
<rect x="822" y="861" width="22.7216" height="22.7216" rx="6.3" fill="#B6B6B6"/>
<rect x="314" y="805" width="22.7216" height="22.7216" rx="6.3" fill="#B6B6B6"/>
<rect x="302" y="70" width="22.7216" height="22.7216" rx="6.3" fill="#B6B6B6"/>
<rect x="1760.72" y="724.722" width="22.7216" height="22.7216" rx="6.3" transform="rotate(180 1760.72 724.722)" fill="#B6B6B6"/>
<rect x="1508.72" y="815.722" width="22.7216" height="22.7216" rx="6.3" transform="rotate(180 1508.72 815.722)" fill="#B6B6B6"/>
<rect x="1380.72" y="621.722" width="22.7216" height="22.7216" rx="6.3" transform="rotate(180 1380.72 621.722)" fill="#B6B6B6"/>
<rect x="1157.72" y="57.7216" width="22.7216" height="22.7216" rx="6.3" transform="rotate(180 1157.72 57.7216)" fill="#B6B6B6"/>
<rect x="1180.72" y="736.722" width="22.7216" height="22.7216" rx="6.3" transform="rotate(180 1180.72 736.722)" fill="#B6B6B6"/>
<rect x="1508.72" y="68.7216" width="22.7216" height="22.7216" rx="6.3" transform="rotate(180 1508.72 68.7216)" fill="#B6B6B6"/>
<rect x="1783.72" y="410.722" width="22.7216" height="22.7216" rx="6.3" transform="rotate(180 1783.72 410.722)" fill="#B6B6B6"/>
<rect x="949.721" y="598.722" width="22.7216" height="22.7216" rx="6.3" transform="rotate(180 949.721 598.722)" fill="#B6B6B6"/>
<rect x="1157.72" y="324.722" width="22.7216" height="22.7216" rx="6.3" transform="rotate(180 1157.72 324.722)" fill="#B6B6B6"/>
<rect x="561.73" y="883.842" width="22.7216" height="22.7216" rx="6.3" fill="#B6B6B6"/>
<rect x="167" y="1145" width="22.7216" height="22.7216" rx="6.3" fill="#B6B6B6"/>
<rect x="414" y="1111" width="22.7216" height="22.7216" rx="6.3" fill="#B6B6B6"/>
<rect x="1123.72" y="968.722" width="22.7216" height="22.7216" rx="6.3" transform="rotate(180 1123.72 968.722)" fill="#B6B6B6"/>
<rect x="1403.72" y="1063.72" width="22.7216" height="22.7216" rx="6.3" transform="rotate(180 1403.72 1063.72)" fill="#B6B6B6"/>
<rect x="1656.72" y="1144.72" width="22.7216" height="22.7216" rx="6.3" transform="rotate(180 1656.72 1144.72)" fill="#B6B6B6"/>
<rect x="914.721" y="1167.72" width="22.7216" height="22.7216" rx="6.3" transform="rotate(180 914.721 1167.72)" fill="#B6B6B6"/>
<rect x="1531.72" y="346.722" width="22.7216" height="22.7216" rx="6.3" transform="rotate(180 1531.72 346.722)" fill="#B6B6B6"/>
<rect x="1806.72" y="871.722" width="22.7216" height="22.7216" rx="6.3" transform="rotate(180 1806.72 871.722)" fill="#B6B6B6"/>
</g>
</svg>
