<svg width="453" height="141" viewBox="0 0 453 141" fill="none" xmlns="http://www.w3.org/2000/svg">
<rect x="0.385" y="0.385" width="205.414" height="140.152" rx="15.015" fill="#161616"/>
<rect x="0.385" y="0.385" width="205.414" height="140.152" rx="15.015" stroke="#444444" stroke-width="0.77"/>
<g clip-path="url(#clip0_159_818)">
<rect x="15.4004" y="15.4" width="175.384" height="86.422" rx="7.7" fill="#444444" fill-opacity="0.5"/>
<rect x="15.4004" y="15.4" width="82.9583" height="86.6943" fill="#B6B6B6" fill-opacity="0.6"/>
<path d="M88.7276 63.6277H92.0714V67.1725H88.7276V73.1111H84.3605V67.1725H72.8488L72.7392 64.4865L84.2326 46.5064H88.7276V63.6277ZM77.1977 63.6277H84.3605V52.3536L83.8488 53.3037L77.1977 63.6277ZM113.998 48.9549L103.364 73.1111H98.7592L109.394 50.1609H95.598V46.5064H113.998V48.9549Z" fill="white"/>
<path d="M120.127 61.554C120.127 61.083 120.196 60.6404 120.335 60.2262C120.481 59.8121 120.696 59.4466 120.98 59.1299C121.256 58.8213 121.605 58.5776 122.028 58.399C122.45 58.2122 122.941 58.1188 123.502 58.1188C124.07 58.1188 124.566 58.2122 124.988 58.399C125.41 58.5776 125.763 58.8213 126.048 59.1299C126.324 59.4466 126.531 59.8121 126.669 60.2262C126.815 60.6404 126.888 61.083 126.888 61.554V62.492C126.888 62.9549 126.815 63.3935 126.669 63.8076C126.531 64.2137 126.324 64.571 126.048 64.8796C125.763 65.1963 125.41 65.4481 124.988 65.6349C124.574 65.8135 124.086 65.9029 123.526 65.9029C122.966 65.9029 122.47 65.8135 122.04 65.6349C121.618 65.4481 121.264 65.1963 120.98 64.8796C120.704 64.571 120.493 64.2137 120.347 63.8076C120.201 63.3935 120.127 62.9549 120.127 62.492V61.554ZM122.162 62.492C122.162 62.7032 122.182 62.9102 122.223 63.1133C122.271 63.3082 122.353 63.4828 122.466 63.6371C122.572 63.7914 122.71 63.9132 122.88 64.0025C123.059 64.0919 123.274 64.1365 123.526 64.1365C123.77 64.1365 123.977 64.0919 124.147 64.0025C124.318 63.9132 124.456 63.7914 124.562 63.6371C124.659 63.4828 124.732 63.3082 124.781 63.1133C124.83 62.9102 124.854 62.7032 124.854 62.492V61.554C124.854 61.3429 124.83 61.1358 124.781 60.9328C124.732 60.7297 124.659 60.547 124.562 60.3846C124.448 60.2384 124.306 60.1207 124.135 60.0313C123.965 59.9339 123.753 59.8851 123.502 59.8851C123.25 59.8851 123.039 59.9339 122.868 60.0313C122.706 60.1207 122.572 60.2384 122.466 60.3846C122.361 60.547 122.284 60.7297 122.235 60.9328C122.186 61.1358 122.162 61.3429 122.162 61.554V62.492ZM127.351 72.0059C127.351 71.543 127.424 71.1044 127.57 70.6903C127.717 70.2761 127.932 69.9106 128.216 69.5939C128.5 69.2772 128.854 69.0295 129.276 68.8508C129.698 68.6722 130.185 68.5828 130.738 68.5828C131.306 68.5828 131.801 68.6722 132.224 68.8508C132.646 69.0295 132.999 69.2772 133.284 69.5939C133.56 69.9106 133.767 70.2761 133.905 70.6903C134.051 71.1044 134.124 71.543 134.124 72.0059V72.956C134.124 73.4189 134.055 73.8575 133.917 74.2717C133.779 74.6858 133.568 75.0472 133.284 75.3558C132.999 75.6644 132.646 75.9081 132.224 76.0867C131.81 76.2654 131.322 76.3547 130.762 76.3547C130.202 76.3547 129.706 76.2654 129.276 76.0867C128.854 75.9081 128.5 75.6644 128.216 75.3558C127.932 75.0472 127.717 74.6858 127.57 74.2717C127.424 73.8575 127.351 73.4189 127.351 72.956V72.0059ZM129.385 72.956C129.385 73.1672 129.414 73.3743 129.471 73.5773C129.528 73.7722 129.613 73.9468 129.727 74.1011C129.832 74.2554 129.97 74.3813 130.141 74.4787C130.311 74.5681 130.518 74.6127 130.762 74.6127C131.03 74.6127 131.249 74.5681 131.42 74.4787C131.59 74.3813 131.724 74.2554 131.822 74.1011C131.927 73.9468 131.996 73.7722 132.029 73.5773C132.069 73.3824 132.09 73.1753 132.09 72.956V72.0059C132.09 71.7866 132.065 71.5795 132.017 71.3846C131.968 71.1816 131.895 71.0029 131.797 70.8486C131.684 70.7024 131.538 70.5847 131.359 70.4953C131.188 70.3979 130.981 70.3492 130.738 70.3492C130.486 70.3492 130.275 70.3938 130.104 70.4832C129.934 70.5725 129.796 70.6943 129.69 70.8486C129.584 71.0029 129.507 71.1816 129.459 71.3846C129.41 71.5795 129.385 71.7866 129.385 72.0059V72.956ZM124.622 73.7478L123.088 72.9682L129.958 60.409L131.481 61.1764L124.622 73.7478Z" fill="white"/>
</g>
<path d="M92.9262 122.522V113.763H94.9535C95.2944 113.767 95.6152 113.803 95.916 113.872C96.2208 113.936 96.5015 114.028 96.7582 114.148C97.1151 114.313 97.4299 114.529 97.7026 114.798C97.9794 115.063 98.1999 115.369 98.3644 115.718C98.5127 116.015 98.625 116.34 98.7012 116.693C98.7814 117.046 98.8235 117.423 98.8276 117.824V118.467C98.8276 118.852 98.7895 119.217 98.7133 119.562C98.6411 119.907 98.5348 120.224 98.3944 120.513C98.2501 120.814 98.0676 121.086 97.847 121.331C97.6264 121.576 97.3798 121.784 97.1071 121.957C96.8183 122.137 96.4915 122.275 96.1265 122.372C95.7656 122.468 95.3746 122.518 94.9535 122.522H92.9262ZM94.0572 114.678V121.614H94.9535C95.2743 121.61 95.5651 121.569 95.8258 121.493C96.0904 121.417 96.3251 121.309 96.5296 121.168C96.7461 121.024 96.9326 120.848 97.089 120.639C97.2495 120.427 97.3758 120.19 97.468 119.929C97.5482 119.717 97.6084 119.488 97.6485 119.243C97.6886 118.995 97.7107 118.736 97.7147 118.467V117.812C97.7107 117.539 97.6866 117.278 97.6425 117.03C97.6024 116.777 97.5402 116.542 97.456 116.326C97.3477 116.045 97.2013 115.792 97.0169 115.568C96.8364 115.339 96.6138 115.155 96.3491 115.014C96.1606 114.91 95.9501 114.83 95.7175 114.774C95.4849 114.714 95.2302 114.682 94.9535 114.678H94.0572ZM104.717 122.522C104.673 122.438 104.637 122.333 104.609 122.209C104.585 122.081 104.566 121.948 104.554 121.812C104.442 121.924 104.316 122.031 104.175 122.131C104.039 122.231 103.889 122.319 103.724 122.396C103.556 122.472 103.377 122.532 103.189 122.576C103 122.62 102.8 122.642 102.587 122.642C102.242 122.642 101.93 122.592 101.649 122.492C101.372 122.392 101.138 122.255 100.945 122.083C100.749 121.914 100.596 121.714 100.488 121.481C100.384 121.245 100.331 120.99 100.331 120.717C100.331 120.36 100.402 120.048 100.542 119.779C100.686 119.51 100.889 119.286 101.15 119.105C101.41 118.929 101.723 118.796 102.088 118.708C102.457 118.62 102.868 118.576 103.321 118.576H104.536V118.064C104.536 117.868 104.5 117.691 104.428 117.535C104.356 117.379 104.254 117.244 104.121 117.132C103.989 117.024 103.827 116.939 103.634 116.879C103.446 116.819 103.233 116.789 102.996 116.789C102.776 116.789 102.577 116.817 102.401 116.873C102.228 116.929 102.082 117.004 101.962 117.096C101.841 117.188 101.747 117.298 101.679 117.427C101.615 117.551 101.583 117.681 101.583 117.818H100.464C100.468 117.581 100.528 117.349 100.644 117.12C100.765 116.891 100.937 116.685 101.162 116.5C101.382 116.32 101.651 116.173 101.968 116.061C102.289 115.949 102.651 115.893 103.057 115.893C103.425 115.893 103.768 115.939 104.085 116.031C104.402 116.119 104.677 116.254 104.909 116.434C105.138 116.619 105.318 116.847 105.451 117.12C105.583 117.393 105.649 117.711 105.649 118.076V121.102C105.649 121.319 105.669 121.549 105.709 121.794C105.75 122.035 105.806 122.245 105.878 122.426V122.522H104.717ZM102.75 121.674C102.966 121.674 103.169 121.646 103.357 121.59C103.546 121.533 103.718 121.459 103.875 121.367C104.027 121.275 104.159 121.17 104.272 121.054C104.384 120.934 104.472 120.81 104.536 120.681V119.364H103.502C103.117 119.364 102.78 119.398 102.491 119.466C102.206 119.53 101.98 119.63 101.811 119.767C101.691 119.863 101.599 119.977 101.535 120.11C101.474 120.242 101.444 120.392 101.444 120.561C101.444 120.721 101.47 120.87 101.523 121.006C101.579 121.142 101.661 121.259 101.769 121.355C101.877 121.455 102.014 121.533 102.178 121.59C102.343 121.646 102.533 121.674 102.75 121.674ZM108.362 125.151C108.258 125.151 108.136 125.139 107.995 125.115C107.855 125.091 107.749 125.071 107.677 125.055L107.857 124.146C107.957 124.154 108.056 124.16 108.152 124.164C108.252 124.172 108.33 124.176 108.386 124.176C108.539 124.176 108.677 124.134 108.801 124.05C108.93 123.966 109.044 123.865 109.144 123.749C109.241 123.633 109.323 123.513 109.391 123.388C109.463 123.264 109.519 123.162 109.559 123.081L110.005 122.215L107.201 116.013H108.447L110.233 120.212L110.522 121L110.829 120.236L112.507 116.013H113.752L110.45 123.527C110.374 123.695 110.275 123.873 110.155 124.062C110.039 124.25 109.896 124.425 109.728 124.585C109.559 124.746 109.363 124.88 109.138 124.988C108.914 125.097 108.655 125.151 108.362 125.151Z" fill="white"/>
<rect x="246.569" y="0.385" width="205.414" height="140.152" rx="15.015" fill="#161616"/>
<rect x="246.569" y="0.385" width="205.414" height="140.152" rx="15.015" stroke="#444444" stroke-width="0.77"/>
<g clip-path="url(#clip1_159_818)">
<rect x="261.584" y="15.4" width="175.384" height="86.422" rx="7.7" fill="#444444" fill-opacity="0.5"/>
<rect x="261.584" y="15.4" width="59.8213" height="86.6943" fill="#B6B6B6" fill-opacity="0.6"/>
<path d="M325.172 57.8353H327.785C328.565 57.8353 329.247 57.7318 329.831 57.5247C330.416 57.3054 330.897 57.0009 331.275 56.6111C331.628 56.27 331.896 55.8497 332.079 55.3503C332.274 54.8386 332.371 54.2905 332.371 53.7057C332.371 53.0723 332.28 52.5058 332.097 52.0064C331.927 51.5069 331.671 51.0806 331.33 50.7273C330.989 50.3984 330.556 50.1426 330.032 49.9599C329.521 49.7772 328.93 49.6858 328.26 49.6858C327.663 49.6858 327.109 49.7772 326.597 49.9599C326.098 50.1304 325.665 50.3801 325.3 50.709C324.922 51.038 324.624 51.4339 324.405 51.8968C324.197 52.3597 324.094 52.8774 324.094 53.4499H319.727C319.727 52.3901 319.94 51.4156 320.366 50.5263C320.793 49.6371 321.383 48.8635 322.139 48.2057C322.894 47.5601 323.783 47.0546 324.807 46.6891C325.842 46.3237 326.975 46.1409 328.205 46.1409C329.46 46.1409 330.611 46.3054 331.659 46.6343C332.718 46.951 333.62 47.4261 334.363 48.0595C335.118 48.7052 335.703 49.497 336.117 50.435C336.531 51.3729 336.738 52.4632 336.738 53.7057C336.738 54.2539 336.653 54.8021 336.483 55.3503C336.324 55.8984 336.081 56.4283 335.752 56.94C335.423 57.4394 335.009 57.9084 334.509 58.3469C334.01 58.7855 333.425 59.157 332.755 59.4616C333.547 59.7296 334.217 60.0828 334.765 60.5214C335.325 60.9477 335.782 61.4289 336.135 61.9649C336.489 62.5131 336.745 63.1039 336.903 63.7373C337.061 64.3586 337.14 65.0042 337.14 65.6742C337.14 66.9167 336.909 68.0252 336.446 68.9998C335.995 69.9621 335.374 70.7722 334.582 71.43C333.778 72.1 332.828 72.6116 331.732 72.9649C330.648 73.306 329.472 73.4765 328.205 73.4765C327.06 73.4765 325.958 73.3182 324.898 73.0014C323.838 72.6847 322.906 72.2096 322.102 71.5762C321.298 70.9428 320.653 70.1631 320.165 69.2373C319.69 68.2993 319.453 67.2091 319.453 65.9666H323.82C323.82 66.5513 323.923 67.0934 324.13 67.5928C324.35 68.0801 324.66 68.4942 325.062 68.8353C325.452 69.1886 325.915 69.4627 326.451 69.6576C326.999 69.8525 327.602 69.9499 328.26 69.9499C328.967 69.9499 329.6 69.8586 330.16 69.6759C330.733 69.481 331.214 69.1947 331.604 68.8171C331.981 68.4638 332.268 68.0252 332.463 67.5014C332.67 66.9654 332.773 66.3564 332.773 65.6742C332.773 64.9067 332.658 64.2489 332.426 63.7008C332.195 63.1526 331.86 62.6958 331.421 62.3303C330.983 61.9771 330.453 61.7152 329.831 61.5446C329.222 61.3619 328.54 61.2705 327.785 61.2705H325.172V57.8353ZM357.386 63.6277H360.73V67.1725H357.386V73.1111H353.019V67.1725H341.508L341.398 64.4865L352.891 46.5064H357.386V63.6277ZM345.856 63.6277H353.019V52.3536L352.508 53.3037L345.856 63.6277Z" fill="white"/>
<path d="M366.311 61.554C366.311 61.083 366.38 60.6404 366.518 60.2262C366.664 59.8121 366.879 59.4466 367.164 59.1299C367.44 58.8213 367.789 58.5776 368.211 58.399C368.634 58.2122 369.125 58.1188 369.685 58.1188C370.254 58.1188 370.749 58.2122 371.171 58.399C371.594 58.5776 371.947 58.8213 372.231 59.1299C372.507 59.4466 372.715 59.8121 372.853 60.2262C372.999 60.6404 373.072 61.083 373.072 61.554V62.492C373.072 62.9549 372.999 63.3935 372.853 63.8076C372.715 64.2137 372.507 64.571 372.231 64.8796C371.947 65.1963 371.594 65.4481 371.171 65.6349C370.757 65.8135 370.27 65.9029 369.71 65.9029C369.149 65.9029 368.654 65.8135 368.224 65.6349C367.801 65.4481 367.448 65.1963 367.164 64.8796C366.888 64.571 366.676 64.2137 366.53 63.8076C366.384 63.3935 366.311 62.9549 366.311 62.492V61.554ZM368.345 62.492C368.345 62.7032 368.366 62.9102 368.406 63.1133C368.455 63.3082 368.536 63.4828 368.65 63.6371C368.755 63.7914 368.894 63.9132 369.064 64.0025C369.243 64.0919 369.458 64.1365 369.71 64.1365C369.953 64.1365 370.16 64.0919 370.331 64.0025C370.502 63.9132 370.64 63.7914 370.745 63.6371C370.843 63.4828 370.916 63.3082 370.964 63.1133C371.013 62.9102 371.037 62.7032 371.037 62.492V61.554C371.037 61.3429 371.013 61.1358 370.964 60.9328C370.916 60.7297 370.843 60.547 370.745 60.3846C370.631 60.2384 370.489 60.1207 370.319 60.0313C370.148 59.9339 369.937 59.8851 369.685 59.8851C369.434 59.8851 369.222 59.9339 369.052 60.0313C368.889 60.1207 368.755 60.2384 368.65 60.3846C368.544 60.547 368.467 60.7297 368.418 60.9328C368.37 61.1358 368.345 61.3429 368.345 61.554V62.492ZM373.535 72.0059C373.535 71.543 373.608 71.1044 373.754 70.6903C373.9 70.2761 374.115 69.9106 374.4 69.5939C374.684 69.2772 375.037 69.0295 375.459 68.8508C375.882 68.6722 376.369 68.5828 376.921 68.5828C377.49 68.5828 377.985 68.6722 378.407 68.8508C378.83 69.0295 379.183 69.2772 379.467 69.5939C379.743 69.9106 379.95 70.2761 380.088 70.6903C380.235 71.1044 380.308 71.543 380.308 72.0059V72.956C380.308 73.4189 380.239 73.8575 380.101 74.2717C379.963 74.6858 379.751 75.0472 379.467 75.3558C379.183 75.6644 378.83 75.9081 378.407 76.0867C377.993 76.2654 377.506 76.3547 376.946 76.3547C376.385 76.3547 375.89 76.2654 375.459 76.0867C375.037 75.9081 374.684 75.6644 374.4 75.3558C374.115 75.0472 373.9 74.6858 373.754 74.2717C373.608 73.8575 373.535 73.4189 373.535 72.956V72.0059ZM375.569 72.956C375.569 73.1672 375.597 73.3743 375.654 73.5773C375.711 73.7722 375.796 73.9468 375.91 74.1011C376.016 74.2554 376.154 74.3813 376.324 74.4787C376.495 74.5681 376.702 74.6127 376.946 74.6127C377.214 74.6127 377.433 74.5681 377.603 74.4787C377.774 74.3813 377.908 74.2554 378.005 74.1011C378.111 73.9468 378.18 73.7722 378.212 73.5773C378.253 73.3824 378.273 73.1753 378.273 72.956V72.0059C378.273 71.7866 378.249 71.5795 378.2 71.3846C378.152 71.1816 378.078 71.0029 377.981 70.8486C377.867 70.7024 377.721 70.5847 377.542 70.4953C377.372 70.3979 377.165 70.3492 376.921 70.3492C376.669 70.3492 376.458 70.3938 376.288 70.4832C376.117 70.5725 375.979 70.6943 375.874 70.8486C375.768 71.0029 375.691 71.1816 375.642 71.3846C375.593 71.5795 375.569 71.7866 375.569 72.0059V72.956ZM370.806 73.7478L369.271 72.9682L376.142 60.409L377.664 61.1764L370.806 73.7478Z" fill="white"/>
</g>
<path d="M335.982 122.522L334.917 113.763H335.976L336.607 119.803L336.643 120.152L336.71 119.791L337.768 113.763H338.737L339.802 119.797L339.868 120.152L339.904 119.791L340.536 113.763H341.588L340.523 122.522H339.387L338.322 116.29L338.262 115.923L338.195 116.296L337.125 122.522H335.982ZM345.799 122.642C345.342 122.642 344.921 122.564 344.536 122.408C344.155 122.251 343.828 122.033 343.555 121.752C343.283 121.471 343.07 121.138 342.918 120.753C342.765 120.368 342.689 119.949 342.689 119.496V119.243C342.689 118.718 342.773 118.249 342.942 117.836C343.11 117.419 343.335 117.066 343.616 116.777C343.892 116.492 344.207 116.274 344.56 116.121C344.917 115.969 345.282 115.893 345.655 115.893C346.124 115.893 346.533 115.975 346.882 116.139C347.235 116.3 347.528 116.522 347.76 116.807C347.993 117.096 348.165 117.435 348.278 117.824C348.394 118.213 348.452 118.634 348.452 119.087V119.586H343.802V119.628C343.83 119.945 343.892 120.224 343.988 120.465C344.089 120.705 344.225 120.918 344.398 121.102C344.574 121.299 344.787 121.453 345.035 121.565C345.284 121.678 345.559 121.734 345.859 121.734C346.256 121.734 346.609 121.654 346.918 121.493C347.227 121.333 347.484 121.12 347.688 120.856L348.368 121.385C348.151 121.714 347.826 122.007 347.393 122.263C346.964 122.516 346.433 122.642 345.799 122.642ZM345.655 116.807C345.43 116.807 345.218 116.849 345.017 116.933C344.817 117.014 344.636 117.132 344.476 117.288C344.315 117.449 344.179 117.645 344.067 117.878C343.958 118.107 343.882 118.371 343.838 118.672H347.339V118.618C347.339 118.417 347.301 118.203 347.225 117.974C347.149 117.742 347.042 117.541 346.906 117.373C346.77 117.204 346.597 117.068 346.389 116.964C346.184 116.859 345.94 116.807 345.655 116.807ZM353.198 122.642C352.741 122.642 352.32 122.564 351.935 122.408C351.554 122.251 351.227 122.033 350.955 121.752C350.682 121.471 350.469 121.138 350.317 120.753C350.165 120.368 350.088 119.949 350.088 119.496V119.243C350.088 118.718 350.173 118.249 350.341 117.836C350.509 117.419 350.734 117.066 351.015 116.777C351.291 116.492 351.606 116.274 351.959 116.121C352.316 115.969 352.681 115.893 353.054 115.893C353.523 115.893 353.932 115.975 354.281 116.139C354.634 116.3 354.927 116.522 355.16 116.807C355.392 117.096 355.565 117.435 355.677 117.824C355.793 118.213 355.851 118.634 355.851 119.087V119.586H351.201V119.628C351.229 119.945 351.291 120.224 351.388 120.465C351.488 120.705 351.624 120.918 351.797 121.102C351.973 121.299 352.186 121.453 352.434 121.565C352.683 121.678 352.958 121.734 353.259 121.734C353.656 121.734 354.009 121.654 354.317 121.493C354.626 121.333 354.883 121.12 355.087 120.856L355.767 121.385C355.551 121.714 355.226 122.007 354.793 122.263C354.363 122.516 353.832 122.642 353.198 122.642ZM353.054 116.807C352.829 116.807 352.617 116.849 352.416 116.933C352.216 117.014 352.035 117.132 351.875 117.288C351.715 117.449 351.578 117.645 351.466 117.878C351.358 118.107 351.281 118.371 351.237 118.672H354.738V118.618C354.738 118.417 354.7 118.203 354.624 117.974C354.548 117.742 354.442 117.541 354.305 117.373C354.169 117.204 353.996 117.068 353.788 116.964C353.583 116.859 353.339 116.807 353.054 116.807ZM359.671 119.484L358.853 120.272V122.522H357.734V113.282H358.853V118.937L359.581 118.155L361.717 116.013H363.07L360.435 118.726L363.473 122.522H362.059L359.671 119.484Z" fill="white"/>
<defs>
<clipPath id="clip0_159_818">
<rect x="15.4004" y="15.4" width="175.384" height="86.422" rx="7.7" fill="white"/>
</clipPath>
<clipPath id="clip1_159_818">
<rect x="261.584" y="15.4" width="175.384" height="86.422" rx="7.7" fill="white"/>
</clipPath>
</defs>
</svg>
