<svg width="454" height="137" viewBox="0 0 454 137" fill="none" xmlns="http://www.w3.org/2000/svg">
<rect width="21.6" height="21.6" rx="3.6" fill="#B6B6B6"/>
<rect x="28.8008" width="21.6" height="21.6" rx="3.6" fill="#B6B6B6"/>
<rect x="57.5996" width="21.6" height="21.6" rx="3.6" fill="#B6B6B6"/>
<rect x="86.4004" width="21.6" height="21.6" rx="3.6" fill="#B6B6B6"/>
<rect x="115.199" width="21.6" height="21.6" rx="3.6" fill="#B6B6B6"/>
<rect x="144" width="21.6" height="21.6" rx="3.6" fill="#B6B6B6"/>
<rect x="172.801" width="21.6" height="21.6" rx="3.6" fill="#B6B6B6"/>
<rect x="201.6" width="21.6" height="21.6" rx="3.6" fill="#B6B6B6"/>
<rect x="230.4" width="21.6" height="21.6" rx="3.6" fill="#B6B6B6"/>
<rect x="259.199" width="21.6" height="21.6" rx="3.6" fill="#B6B6B6"/>
<rect x="288" width="21.6" height="21.6" rx="3.6" fill="#B6B6B6"/>
<rect x="316.801" width="21.6" height="21.6" rx="3.6" fill="#B6B6B6"/>
<rect x="345.6" width="21.6" height="21.6" rx="3.6" fill="#B6B6B6"/>
<rect x="374.4" width="21.6" height="21.6" rx="3.6" fill="#B6B6B6"/>
<rect x="403.199" width="21.6" height="21.6" rx="3.6" fill="#B6B6B6"/>
<rect x="432" width="21.6" height="21.6" rx="3.6" fill="#B6B6B6"/>
<rect y="28.8" width="21.6" height="21.6" rx="3.6" fill="#B6B6B6"/>
<rect x="28.8008" y="28.8" width="21.6" height="21.6" rx="3.6" fill="#B6B6B6"/>
<rect x="57.5996" y="28.8" width="21.6" height="21.6" rx="3.6" fill="#B6B6B6"/>
<rect x="86.4004" y="28.8" width="21.6" height="21.6" rx="3.6" fill="#B6B6B6"/>
<rect x="115.199" y="28.8" width="21.6" height="21.6" rx="3.6" fill="#B6B6B6"/>
<rect x="144" y="28.8" width="21.6" height="21.6" rx="3.6" fill="#B6B6B6"/>
<rect x="172.801" y="28.8" width="21.6" height="21.6" rx="3.6" fill="#B6B6B6"/>
<rect x="201.6" y="28.8" width="21.6" height="21.6" rx="3.6" fill="#B6B6B6"/>
<rect x="230.4" y="28.8" width="21.6" height="21.6" rx="3.6" fill="#B6B6B6"/>
<rect x="259.199" y="28.8" width="21.6" height="21.6" rx="3.6" fill="#B6B6B6"/>
<rect x="288" y="28.8" width="21.6" height="21.6" rx="3.6" fill="#B6B6B6"/>
<rect x="316.801" y="28.8" width="21.6" height="21.6" rx="3.6" fill="#B6B6B6"/>
<rect x="345.6" y="28.8" width="21.6" height="21.6" rx="3.6" fill="#B6B6B6"/>
<rect x="374.4" y="28.8" width="21.6" height="21.6" rx="3.6" fill="#B6B6B6"/>
<rect x="403.199" y="28.8" width="21.6" height="21.6" rx="3.6" fill="#B6B6B6"/>
<rect x="432" y="28.8" width="21.6" height="21.6" rx="3.6" fill="#B6B6B6"/>
<rect y="57.6" width="21.6" height="21.6" rx="3.6" fill="#B6B6B6"/>
<rect x="28.8008" y="57.6" width="21.6" height="21.6" rx="3.6" fill="#B6B6B6"/>
<rect x="57.5996" y="57.6" width="21.6" height="21.6" rx="3.6" fill="#B6B6B6"/>
<rect x="86.4004" y="57.6" width="21.6" height="21.6" rx="3.6" fill="#B6B6B6"/>
<rect x="115.199" y="57.6" width="21.6" height="21.6" rx="3.6" fill="#B6B6B6"/>
<rect x="144" y="57.6" width="21.6" height="21.6" rx="3.6" fill="#B6B6B6"/>
<rect x="172.801" y="57.6" width="21.6" height="21.6" rx="3.6" fill="#B6B6B6"/>
<rect x="201.6" y="57.6" width="21.6" height="21.6" rx="3.6" fill="#B6B6B6"/>
<rect x="230.4" y="57.6" width="21.6" height="21.6" rx="3.6" fill="#444444" fill-opacity="0.8"/>
<rect x="259.199" y="57.6" width="21.6" height="21.6" rx="3.6" fill="#444444" fill-opacity="0.8"/>
<rect x="288" y="57.6" width="21.6" height="21.6" rx="3.6" fill="#444444" fill-opacity="0.8"/>
<rect x="316.801" y="57.6" width="21.6" height="21.6" rx="3.6" fill="#444444" fill-opacity="0.8"/>
<rect x="345.6" y="57.6" width="21.6" height="21.6" rx="3.6" fill="#444444" fill-opacity="0.8"/>
<rect x="374.4" y="57.6" width="21.6" height="21.6" rx="3.6" fill="#444444" fill-opacity="0.8"/>
<rect x="403.199" y="57.6" width="21.6" height="21.6" rx="3.6" fill="#444444" fill-opacity="0.8"/>
<rect x="432" y="57.6" width="21.6" height="21.6" rx="3.6" fill="#444444" fill-opacity="0.8"/>
<rect y="86.4" width="21.6" height="21.6" rx="3.6" fill="#444444" fill-opacity="0.8"/>
<rect x="28.8008" y="86.4" width="21.6" height="21.6" rx="3.6" fill="#444444" fill-opacity="0.8"/>
<rect x="57.5996" y="86.4" width="21.6" height="21.6" rx="3.6" fill="#444444" fill-opacity="0.8"/>
<rect x="86.4004" y="86.4" width="21.6" height="21.6" rx="3.6" fill="#444444" fill-opacity="0.8"/>
<rect x="115.199" y="86.4" width="21.6" height="21.6" rx="3.6" fill="#444444" fill-opacity="0.8"/>
<rect x="144" y="86.4" width="21.6" height="21.6" rx="3.6" fill="#444444" fill-opacity="0.8"/>
<rect x="172.801" y="86.4" width="21.6" height="21.6" rx="3.6" fill="#444444" fill-opacity="0.8"/>
<rect x="201.6" y="86.4" width="21.6" height="21.6" rx="3.6" fill="#444444" fill-opacity="0.8"/>
<rect x="230.4" y="86.4" width="21.6" height="21.6" rx="3.6" fill="#444444" fill-opacity="0.8"/>
<rect x="259.199" y="86.4" width="21.6" height="21.6" rx="3.6" fill="#444444" fill-opacity="0.8"/>
<rect x="288" y="86.4" width="21.6" height="21.6" rx="3.6" fill="#444444" fill-opacity="0.8"/>
<rect x="316.801" y="86.4" width="21.6" height="21.6" rx="3.6" fill="#444444" fill-opacity="0.8"/>
<rect x="345.6" y="86.4" width="21.6" height="21.6" rx="3.6" fill="#444444" fill-opacity="0.8"/>
<rect x="374.4" y="86.4" width="21.6" height="21.6" rx="3.6" fill="#444444" fill-opacity="0.8"/>
<rect x="403.199" y="86.4" width="21.6" height="21.6" rx="3.6" fill="#444444" fill-opacity="0.8"/>
<rect x="432" y="86.4" width="21.6" height="21.6" rx="3.6" fill="#444444" fill-opacity="0.8"/>
<rect y="115.2" width="21.6" height="21.6" rx="3.6" fill="#444444" fill-opacity="0.8"/>
<rect x="28.8008" y="115.2" width="21.6" height="21.6" rx="3.6" fill="#444444" fill-opacity="0.8"/>
<rect x="57.5996" y="115.2" width="21.6" height="21.6" rx="3.6" fill="#444444" fill-opacity="0.8"/>
<rect x="86.4004" y="115.2" width="21.6" height="21.6" rx="3.6" fill="#444444" fill-opacity="0.8"/>
<rect x="115.199" y="115.2" width="21.6" height="21.6" rx="3.6" fill="#444444" fill-opacity="0.8"/>
<rect x="144" y="115.2" width="21.6" height="21.6" rx="3.6" fill="#444444" fill-opacity="0.8"/>
<rect x="172.801" y="115.2" width="21.6" height="21.6" rx="3.6" fill="#444444" fill-opacity="0.8"/>
<rect x="201.6" y="115.2" width="21.6" height="21.6" rx="3.6" fill="#444444" fill-opacity="0.8"/>
<rect x="230.4" y="115.2" width="21.6" height="21.6" rx="3.6" fill="#444444" fill-opacity="0.8"/>
<rect x="259.199" y="115.2" width="21.6" height="21.6" rx="3.6" fill="#444444" fill-opacity="0.8"/>
<rect x="288" y="115.2" width="21.6" height="21.6" rx="3.6" fill="#444444" fill-opacity="0.8"/>
<rect x="316.801" y="115.2" width="21.6" height="21.6" rx="3.6" fill="#444444" fill-opacity="0.8"/>
<rect x="345.6" y="115.2" width="21.6" height="21.6" rx="3.6" fill="#444444" fill-opacity="0.8"/>
<rect x="374.4" y="115.2" width="21.6" height="21.6" rx="3.6" fill="#444444" fill-opacity="0.8"/>
<rect x="403.199" y="115.2" width="21.6" height="21.6" rx="3.6" fill="#444444" fill-opacity="0.8"/>
<rect x="432" y="115.2" width="21.6" height="21.6" rx="3.6" fill="#444444" fill-opacity="0.8"/>
</svg>
