<svg width="216" height="59" viewBox="0 0 216 59" fill="none" xmlns="http://www.w3.org/2000/svg">
<path d="M24.5159 0.338623C25.2812 -0.103205 26.5281 -0.114086 27.3009 0.314318L31.4991 2.6414C32.272 3.06981 32.2781 3.77527 31.5128 4.2171L27.3559 6.6171C26.5907 7.05893 25.3438 7.06981 24.5709 6.6414L20.3727 4.31432C19.5999 3.88591 19.5937 3.18045 20.359 2.73862L24.5159 0.338623Z" fill="white"/>
<path d="M33.6119 5.38064C34.3772 4.93882 35.6241 4.92793 36.397 5.35634L40.5951 7.68342C41.368 8.11183 41.3742 8.81729 40.6089 9.25912L36.452 11.6591C35.6867 12.1009 34.4398 12.1118 33.6669 11.6834L29.4688 9.35634C28.6959 8.92793 28.6897 8.22247 29.455 7.78064L33.6119 5.38064Z" fill="white"/>
<path d="M42.708 10.4227C43.4732 9.98084 44.7201 9.96995 45.493 10.3984L49.6912 12.7254C50.464 13.1538 50.4702 13.8593 49.7049 14.3011L45.548 16.7011C44.7827 17.143 43.5358 17.1539 42.763 16.7254L38.5648 14.3984C37.7919 13.97 37.7858 13.2645 38.5511 12.8227L42.708 10.4227Z" fill="white"/>
<path d="M15.5092 5.53862C16.2745 5.0968 17.5214 5.08591 18.2943 5.51432L22.4924 7.8414C23.2653 8.26981 23.2715 8.97527 22.5062 9.4171L18.3493 11.8171C17.584 12.2589 16.3371 12.2698 15.5642 11.8414L11.3661 9.51432C10.5932 9.08591 10.587 8.38045 11.3523 7.93862L15.5092 5.53862Z" fill="white"/>
<path d="M24.6053 10.5806C25.3705 10.1388 26.6174 10.1279 27.3903 10.5563L31.5885 12.8834C32.3613 13.3118 32.3675 14.0173 31.6022 14.4591L27.4453 16.8591C26.68 17.3009 25.4331 17.3118 24.6603 16.8834L20.4621 14.5563C19.6892 14.1279 19.6831 13.4225 20.4483 12.9806L24.6053 10.5806Z" fill="white"/>
<path d="M33.7013 15.6227C34.4666 15.1808 35.7135 15.17 36.4863 15.5984L40.6845 17.9254C41.4574 18.3538 41.4635 19.0593 40.6983 19.5011L36.5414 21.9011C35.7761 22.343 34.5292 22.3538 33.7563 21.9254L29.5581 19.5984C28.7853 19.17 28.7791 18.4645 29.5444 18.0227L33.7013 15.6227Z" fill="white"/>
<path d="M6.50256 10.7386C7.26783 10.2968 8.51473 10.2859 9.2876 10.7143L13.4858 13.0414C14.2586 13.4698 14.2648 14.1753 13.4995 14.6171L9.3426 17.0171C8.57733 17.4589 7.33043 17.4698 6.55757 17.0414L2.35939 14.7143C1.58653 14.2859 1.58037 13.5805 2.34564 13.1386L6.50256 10.7386Z" fill="white"/>
<path d="M15.5986 15.7806C16.3639 15.3388 17.6108 15.3279 18.3836 15.7563L22.5818 18.0834C23.3547 18.5118 23.3608 19.2173 22.5956 19.6591L18.4386 22.0591C17.6734 22.5009 16.4265 22.5118 15.6536 22.0834L11.4554 19.7563C10.6826 19.3279 10.6764 18.6225 11.4417 18.1806L15.5986 15.7806Z" fill="white"/>
<path d="M24.6947 20.8227C25.4599 20.3808 26.7068 20.37 27.4797 20.7984L31.6779 23.1254C32.4507 23.5538 32.4569 24.2593 31.6916 24.7011L27.5347 27.1011C26.7694 27.543 25.5225 27.5538 24.7497 27.1254L20.5515 24.7984C19.7786 24.37 19.7725 23.6645 20.5377 23.2227L24.6947 20.8227Z" fill="white"/>
<path d="M0 17.1386C0 16.255 0.620372 15.8968 1.38564 16.3386L5.54256 18.7386C6.30783 19.1805 6.9282 20.255 6.9282 21.1386V25.9386C6.9282 26.8223 6.30783 27.1805 5.54256 26.7386L1.38564 24.3386C0.620372 23.8968 0 22.8223 0 21.9386V17.1386Z" fill="white"/>
<path d="M9.00666 22.3386C9.00666 21.455 9.62704 21.0968 10.3923 21.5386L14.5492 23.9386C15.3145 24.3805 15.9349 25.455 15.9349 26.3386V31.1386C15.9349 32.0223 15.3145 32.3805 14.5492 31.9386L10.3923 29.5386C9.62704 29.0968 9.00666 28.0223 9.00666 27.1386V22.3386Z" fill="white"/>
<path d="M18.0133 27.5386C18.0133 26.655 18.6337 26.2968 19.399 26.7386L23.5559 29.1386C24.3212 29.5805 24.9415 30.655 24.9415 31.5386V36.3386C24.9415 37.2223 24.3212 37.5804 23.5559 37.1386L19.399 34.7386C18.6337 34.2968 18.0133 33.2223 18.0133 32.3386V27.5386Z" fill="white"/>
<path d="M0 27.5386C0 26.655 0.620372 26.2968 1.38564 26.7386L5.54256 29.1386C6.30783 29.5805 6.9282 30.655 6.9282 31.5386V36.3386C6.9282 37.2223 6.30783 37.5804 5.54256 37.1386L1.38564 34.7386C0.620372 34.2968 0 33.2223 0 32.3386V27.5386Z" fill="white"/>
<path d="M9.00666 32.7386C9.00666 31.855 9.62704 31.4968 10.3923 31.9386L14.5492 34.3386C15.3145 34.7804 15.9349 35.855 15.9349 36.7386V41.5386C15.9349 42.4223 15.3145 42.7804 14.5492 42.3386L10.3923 39.9386C9.62704 39.4968 9.00666 38.4223 9.00666 37.5386V32.7386Z" fill="white"/>
<path d="M18.0133 37.9386C18.0133 37.055 18.6337 36.6968 19.399 37.1386L23.5559 39.5386C24.3212 39.9804 24.9415 41.055 24.9415 41.9386V46.7386C24.9415 47.6223 24.3212 47.9804 23.5559 47.5386L19.399 45.1386C18.6337 44.6968 18.0133 43.6223 18.0133 42.7386V37.9386Z" fill="white"/>
<path d="M0 37.9386C0 37.055 0.620372 36.6968 1.38564 37.1386L5.54256 39.5386C6.30783 39.9804 6.9282 41.055 6.9282 41.9386V46.7386C6.9282 47.6223 6.30783 47.9804 5.54256 47.5386L1.38564 45.1386C0.620372 44.6968 0 43.6223 0 42.7386V37.9386Z" fill="white"/>
<path d="M9.00666 43.1386C9.00666 42.255 9.62704 41.8968 10.3923 42.3386L14.5492 44.7386C15.3145 45.1805 15.9349 46.255 15.9349 47.1386V51.9386C15.9349 52.8223 15.3145 53.1805 14.5492 52.7386L10.3923 50.3386C9.62704 49.8968 9.00666 48.8223 9.00666 47.9386V43.1386Z" fill="white"/>
<path d="M18.0133 48.3386C18.0133 47.455 18.6337 47.0968 19.399 47.5386L23.5559 49.9386C24.3212 50.3805 24.9415 51.455 24.9415 52.3386V57.1386C24.9415 58.0223 24.3212 58.3805 23.5559 57.9386L19.399 55.5386C18.6337 55.0968 18.0133 54.0223 18.0133 53.1386V48.3386Z" fill="white"/>
<path d="M27.3415 31.5386C27.3415 30.655 27.9619 29.5805 28.7272 29.1386L32.8841 26.7386C33.6494 26.2968 34.2697 26.655 34.2697 27.5386V32.3386C34.2697 33.2223 33.6494 34.2968 32.8841 34.7386L28.7272 37.1386C27.9619 37.5804 27.3415 37.2223 27.3415 36.3386V31.5386Z" fill="white"/>
<path d="M36.3482 26.3386C36.3482 25.455 36.9686 24.3805 37.7338 23.9386L41.8908 21.5386C42.656 21.0968 43.2764 21.455 43.2764 22.3386V27.1386C43.2764 28.0223 42.656 29.0968 41.8908 29.5386L37.7338 31.9386C36.9686 32.3805 36.3482 32.0223 36.3482 31.1386V26.3386Z" fill="white"/>
<path d="M45.3549 21.1386C45.3549 20.255 45.9752 19.1805 46.7405 18.7386L50.8974 16.3386C51.6627 15.8968 52.2831 16.255 52.2831 17.1386V21.9386C52.2831 22.8223 51.6627 23.8968 50.8974 24.3386L46.7405 26.7386C45.9752 27.1805 45.3549 26.8223 45.3549 25.9386V21.1386Z" fill="white"/>
<path d="M27.3415 41.9386C27.3415 41.055 27.9619 39.9804 28.7272 39.5386L32.8841 37.1386C33.6494 36.6968 34.2697 37.055 34.2697 37.9386V42.7386C34.2697 43.6223 33.6494 44.6968 32.8841 45.1386L28.7272 47.5386C27.9619 47.9804 27.3415 47.6223 27.3415 46.7386V41.9386Z" fill="white"/>
<path d="M36.3482 36.7386C36.3482 35.855 36.9686 34.7804 37.7338 34.3386L41.8908 31.9386C42.656 31.4968 43.2764 31.855 43.2764 32.7386V37.5386C43.2764 38.4223 42.656 39.4968 41.8908 39.9386L37.7338 42.3386C36.9686 42.7804 36.3482 42.4223 36.3482 41.5386V36.7386Z" fill="white"/>
<path d="M45.3549 31.5386C45.3549 30.655 45.9752 29.5805 46.7405 29.1386L50.8974 26.7386C51.6627 26.2968 52.2831 26.655 52.2831 27.5386V32.3386C52.2831 33.2223 51.6627 34.2968 50.8974 34.7386L46.7405 37.1386C45.9752 37.5804 45.3549 37.2223 45.3549 36.3386V31.5386Z" fill="white"/>
<path d="M27.3415 52.3386C27.3415 51.455 27.9619 50.3805 28.7272 49.9386L32.8841 47.5386C33.6494 47.0968 34.2697 47.455 34.2697 48.3386V53.1386C34.2697 54.0223 33.6494 55.0968 32.8841 55.5386L28.7272 57.9386C27.9619 58.3805 27.3415 58.0223 27.3415 57.1386V52.3386Z" fill="white"/>
<path d="M36.3482 47.1386C36.3482 46.255 36.9686 45.1805 37.7338 44.7386L41.8908 42.3386C42.656 41.8968 43.2764 42.255 43.2764 43.1386V47.9386C43.2764 48.8223 42.656 49.8968 41.8908 50.3386L37.7338 52.7386C36.9686 53.1805 36.3482 52.8223 36.3482 51.9386V47.1386Z" fill="white"/>
<path d="M45.3549 41.9386C45.3549 41.055 45.9752 39.9804 46.7405 39.5386L50.8974 37.1386C51.6627 36.6968 52.2831 37.055 52.2831 37.9386V42.7386C52.2831 43.6223 51.6627 44.6968 50.8974 45.1386L46.7405 47.5386C45.9752 47.9804 45.3549 47.6223 45.3549 46.7386V41.9386Z" fill="white"/>
<path d="M64.4911 19.4746C63.6591 19.4746 63.0244 19.272 62.5871 18.8666C62.1498 18.4506 61.9311 17.8533 61.9311 17.0746V12.7546H60.6831V11.1546H61.9311V8.93062H64.0271V11.1546H65.8991V12.7546H64.0271V16.7546C64.0271 17.0853 64.0911 17.3306 64.2191 17.4906C64.3471 17.6506 64.5711 17.7306 64.8911 17.7306C65.0618 17.7306 65.2378 17.704 65.4191 17.6506C65.6111 17.5866 65.7711 17.512 65.8991 17.4266V19.1866C65.6858 19.2933 65.4511 19.368 65.1951 19.4106C64.9498 19.4533 64.7151 19.4746 64.4911 19.4746Z" fill="white" fill-opacity="0.6"/>
<path d="M67.7781 19.2186V7.85862H69.8101V12.5466L69.0581 12.0666C69.4848 11.736 69.9701 11.4693 70.5141 11.2666C71.0581 11.064 71.6021 10.9626 72.1461 10.9626C72.7541 10.9626 73.2821 11.064 73.7301 11.2666C74.1781 11.4693 74.5248 11.8 74.7701 12.2586C75.0261 12.7066 75.1541 13.3146 75.1541 14.0826V19.2186H73.1221V14.4346C73.1221 13.8373 72.9781 13.3946 72.6901 13.1066C72.4128 12.808 71.9914 12.6586 71.4261 12.6586C71.1381 12.6586 70.8501 12.7013 70.5621 12.7866C70.2741 12.872 70.0234 12.9786 69.8101 13.1066L69.7941 19.2186H67.7781Z" fill="white" fill-opacity="0.6"/>
<path d="M80.9395 19.4586C80.1395 19.4586 79.4408 19.2986 78.8435 18.9786C78.2461 18.648 77.7821 18.168 77.4515 17.5386C77.1208 16.9093 76.9555 16.152 76.9555 15.2666C76.9555 13.8586 77.2915 12.7866 77.9635 12.0506C78.6461 11.304 79.6008 10.9306 80.8275 10.9306C81.7128 10.9306 82.4221 11.1226 82.9555 11.5066C83.4995 11.8906 83.8941 12.44 84.1395 13.1546C84.3955 13.8586 84.5181 14.7013 84.5075 15.6826H78.2675L78.1075 14.3066H82.8915L82.5075 14.8826C82.4861 14.04 82.3368 13.4373 82.0595 13.0746C81.7928 12.7013 81.3608 12.5146 80.7635 12.5146C80.4008 12.5146 80.0808 12.6 79.8035 12.7706C79.5368 12.9306 79.3288 13.2026 79.1795 13.5866C79.0408 13.9706 78.9715 14.4986 78.9715 15.1706C78.9715 16.0026 79.1688 16.6426 79.5635 17.0906C79.9581 17.528 80.5608 17.7466 81.3715 17.7466C81.7021 17.7466 82.0168 17.7146 82.3155 17.6506C82.6248 17.576 82.9075 17.4906 83.1635 17.3946C83.4301 17.2986 83.6541 17.208 83.8355 17.1226V18.9146C83.4621 19.0746 83.0355 19.2026 82.5555 19.2986C82.0861 19.4053 81.5475 19.4586 80.9395 19.4586Z" fill="white" fill-opacity="0.6"/>
<path d="M69.1199 47.9962C67.3727 47.9962 66.0399 47.5706 65.1215 46.7194C64.2031 45.8458 63.7439 44.5914 63.7439 42.9562V33.8842H61.1231V30.5242H63.7439V25.8538H68.1455V30.5242H72.0767V33.8842H68.1455V42.2842C68.1455 42.9786 68.2799 43.4938 68.5487 43.8298C68.8175 44.1658 69.2879 44.3338 69.9599 44.3338C70.3183 44.3338 70.6879 44.2778 71.0687 44.1658C71.4719 44.0314 71.8079 43.8746 72.0767 43.6954V47.3914C71.6287 47.6154 71.1359 47.7722 70.5983 47.8618C70.0831 47.9514 69.5903 47.9962 69.1199 47.9962Z" fill="white"/>
<path d="M76.1234 47.4586V30.6922H80.3906L80.4242 47.4586H76.1234ZM76.0226 28.0042V24.5098H80.4914V28.0042H76.0226Z" fill="white"/>
<path d="M100.397 36.169V47.4586H96.1637V36.9082C96.1637 36.4826 96.1077 36.0794 95.9957 35.6986C95.8837 35.2954 95.6933 34.9482 95.4245 34.657C95.1557 34.3434 94.7861 34.1082 94.3157 33.9514C93.8453 33.7722 93.2405 33.6826 92.5013 33.6826C91.9413 33.6826 91.3925 33.7386 90.8549 33.8506C90.3397 33.9626 89.8805 34.1082 89.4773 34.2874V47.4586H85.2101V31.9354C85.6805 31.7114 86.2405 31.4874 86.8901 31.2634C87.5397 31.0394 88.2453 30.849 89.0069 30.6922C89.7685 30.513 90.5301 30.3786 91.2917 30.289C92.0757 30.177 92.8149 30.121 93.5093 30.121C95.0773 30.121 96.3653 30.3338 97.3733 30.7594C98.3813 31.1626 99.1317 31.8122 99.6245 32.7082C100.14 33.5818 100.397 34.7354 100.397 36.169ZM95.8277 32.9434C96.5445 32.3386 97.3621 31.8346 98.2805 31.4314C99.1989 31.0058 100.162 30.681 101.17 30.457C102.178 30.233 103.141 30.121 104.06 30.121C105.628 30.121 106.916 30.3338 107.924 30.7594C108.932 31.1626 109.682 31.8122 110.175 32.7082C110.69 33.5818 110.948 34.7354 110.948 36.169V47.4586H106.714V36.9082C106.714 36.4826 106.658 36.0794 106.546 35.6986C106.434 35.2954 106.244 34.9482 105.975 34.657C105.706 34.3434 105.336 34.1082 104.866 33.9514C104.396 33.7722 103.791 33.6826 103.052 33.6826C102.492 33.6826 101.943 33.761 101.405 33.9178C100.89 34.0746 100.431 34.3098 100.028 34.6234L95.8277 32.9434Z" fill="white"/>
<path d="M123.119 47.9626C121.439 47.9626 119.972 47.6266 118.718 46.9546C117.463 46.2602 116.489 45.2522 115.794 43.9306C115.1 42.609 114.753 41.0186 114.753 39.1594C114.753 36.2026 115.458 33.9514 116.87 32.4058C118.303 30.8378 120.308 30.0538 122.884 30.0538C124.743 30.0538 126.233 30.457 127.353 31.2634C128.495 32.0698 129.324 33.2234 129.839 34.7242C130.377 36.2026 130.634 37.9722 130.612 40.033H117.508L117.172 37.1434H127.218L126.412 38.353C126.367 36.5834 126.054 35.3178 125.471 34.5562C124.911 33.7722 124.004 33.3802 122.75 33.3802C121.988 33.3802 121.316 33.5594 120.734 33.9178C120.174 34.2538 119.737 34.825 119.423 35.6314C119.132 36.4378 118.986 37.5466 118.986 38.9578C118.986 40.705 119.401 42.049 120.23 42.9898C121.058 43.9082 122.324 44.3674 124.026 44.3674C124.721 44.3674 125.382 44.3002 126.009 44.1658C126.658 44.009 127.252 43.8298 127.79 43.6282C128.35 43.4266 128.82 43.2362 129.201 43.057V46.8202C128.417 47.1562 127.521 47.425 126.513 47.6266C125.527 47.8506 124.396 47.9626 123.119 47.9626Z" fill="white"/>
<path d="M151.475 47.8282C150.355 47.8282 149.28 47.6714 148.249 47.3578C147.219 47.0442 146.3 46.5402 145.494 45.8458C144.688 45.1514 144.049 44.2554 143.579 43.1578C143.108 42.0602 142.873 40.7274 142.873 39.1594C142.873 37.5242 143.097 36.1354 143.545 34.993C143.993 33.8506 144.609 32.921 145.393 32.2042C146.177 31.465 147.084 30.9386 148.115 30.625C149.168 30.289 150.276 30.121 151.441 30.121C152.337 30.121 153.256 30.2106 154.196 30.3898C155.137 30.569 155.977 30.8266 156.716 31.1626V34.8586C155.955 34.5226 155.193 34.2538 154.432 34.0522C153.67 33.8282 152.886 33.7162 152.08 33.7162C150.512 33.7162 149.291 34.1082 148.417 34.8922C147.544 35.6762 147.107 36.9642 147.107 38.7562C147.107 40.593 147.499 41.9594 148.283 42.8554C149.089 43.7514 150.411 44.1994 152.248 44.1994C153.076 44.1994 153.883 44.0762 154.667 43.8298C155.451 43.561 156.145 43.2698 156.75 42.9562V46.6858C155.966 47.0666 155.148 47.3466 154.297 47.5258C153.446 47.7274 152.505 47.8282 151.475 47.8282Z" fill="white"/>
<path d="M168.276 47.9626C166.708 47.9626 165.341 47.7162 164.176 47.2234C163.034 46.7082 162.138 45.9466 161.488 44.9386C160.861 43.9306 160.548 42.6426 160.548 41.0746V30.5242H164.815V40.6378C164.815 41.8922 165.095 42.8218 165.655 43.4266C166.215 44.0314 167.088 44.3338 168.276 44.3338C169.508 44.3338 170.392 44.0314 170.93 43.4266C171.49 42.8218 171.77 41.8922 171.77 40.6378V30.5242H175.802V41.0746C175.802 43.4042 175.13 45.1402 173.786 46.2826C172.464 47.4026 170.628 47.9626 168.276 47.9626Z" fill="white"/>
<path d="M187.957 47.9626C187.016 47.9626 186.098 47.9066 185.202 47.7946C184.328 47.6826 183.533 47.481 182.816 47.1898C182.122 46.8762 181.562 46.4506 181.136 45.913C180.71 45.3754 180.498 44.681 180.498 43.8298V24.0058H184.698V33.1786L183.757 31.8346C184.182 31.4314 184.709 31.1066 185.336 30.8602C185.963 30.6138 186.602 30.4346 187.251 30.3226C187.923 30.1882 188.483 30.121 188.931 30.121C191.462 30.121 193.366 30.8826 194.643 32.4058C195.942 33.9066 196.592 36.057 196.592 38.857C196.592 40.649 196.357 42.1386 195.886 43.3258C195.438 44.4906 194.811 45.409 194.005 46.081C193.198 46.753 192.28 47.2346 191.25 47.5258C190.219 47.817 189.122 47.9626 187.957 47.9626ZM187.822 44.3674C188.987 44.3674 189.894 44.1322 190.544 43.6618C191.194 43.1914 191.653 42.5642 191.922 41.7802C192.19 40.9962 192.325 40.1002 192.325 39.0922C192.325 37.8154 192.157 36.7738 191.821 35.9674C191.485 35.161 191.003 34.5674 190.376 34.1866C189.749 33.7834 188.976 33.5818 188.058 33.5818C187.542 33.5818 186.971 33.649 186.344 33.7834C185.739 33.9178 185.19 34.1306 184.698 34.4218V42.7546C184.698 43.1802 184.843 43.5162 185.134 43.7626C185.448 43.9866 185.84 44.1434 186.31 44.233C186.803 44.3226 187.307 44.3674 187.822 44.3674Z" fill="white"/>
<path d="M207.841 47.9626C206.161 47.9626 204.694 47.6266 203.44 46.9546C202.185 46.2602 201.211 45.2522 200.516 43.9306C199.822 42.609 199.475 41.0186 199.475 39.1594C199.475 36.2026 200.18 33.9514 201.592 32.4058C203.025 30.8378 205.03 30.0538 207.606 30.0538C209.465 30.0538 210.955 30.457 212.075 31.2634C213.217 32.0698 214.046 33.2234 214.561 34.7242C215.099 36.2026 215.356 37.9722 215.334 40.033H202.23L201.894 37.1434H211.94L211.134 38.353C211.089 36.5834 210.776 35.3178 210.193 34.5562C209.633 33.7722 208.726 33.3802 207.472 33.3802C206.71 33.3802 206.038 33.5594 205.456 33.9178C204.896 34.2538 204.459 34.825 204.145 35.6314C203.854 36.4378 203.708 37.5466 203.708 38.9578C203.708 40.705 204.123 42.049 204.952 42.9898C205.78 43.9082 207.046 44.3674 208.748 44.3674C209.443 44.3674 210.104 44.3002 210.731 44.1658C211.38 44.009 211.974 43.8298 212.512 43.6282C213.072 43.4266 213.542 43.2362 213.923 43.057V46.8202C213.139 47.1562 212.243 47.425 211.235 47.6266C210.249 47.8506 209.118 47.9626 207.841 47.9626Z" fill="white"/>
</svg>
