<svg width="654" height="740" viewBox="0 0 654 740" fill="none" xmlns="http://www.w3.org/2000/svg">
<rect width="100" height="100" rx="20" transform="matrix(0.87462 0.48481 -0.866025 0.5 323.769 0)" fill="white"/>
<rect width="100" height="100" rx="20" transform="matrix(0.87462 0.48481 -0.866025 0.5 437.47 63.0253)" fill="white"/>
<rect width="100" height="100" rx="20" transform="matrix(0.87462 0.48481 -0.866025 0.5 551.17 126.05)" fill="white"/>
<rect width="100" height="100" rx="20" transform="matrix(0.87462 0.48481 -0.866025 0.5 211.186 65)" fill="white"/>
<rect width="100" height="100" rx="20" transform="matrix(0.87462 0.48481 -0.866025 0.5 324.886 128.025)" fill="white"/>
<rect width="100" height="100" rx="20" transform="matrix(0.87462 0.48481 -0.866025 0.5 438.587 191.05)" fill="white"/>
<rect width="100" height="100" rx="20" transform="matrix(0.87462 0.48481 -0.866025 0.5 98.6025 130)" fill="white"/>
<rect width="100" height="100" rx="20" transform="matrix(0.87462 0.48481 -0.866025 0.5 212.303 193.025)" fill="white"/>
<rect width="100" height="100" rx="20" transform="matrix(0.87462 0.48481 -0.866025 0.5 326.003 256.05)" fill="white"/>
<rect width="100" height="100" rx="20" transform="matrix(0.866025 0.5 0 1 0 200)" fill="white"/>
<rect width="100" height="100" rx="20" transform="matrix(0.866025 0.5 0 1 112.583 265)" fill="white"/>
<rect width="100" height="100" rx="20" transform="matrix(0.866025 0.5 0 1 225.167 330)" fill="white"/>
<rect width="100" height="100" rx="20" transform="matrix(0.866025 0.5 0 1 0 330)" fill="white"/>
<rect width="100" height="100" rx="20" transform="matrix(0.866025 0.5 0 1 112.583 395)" fill="white"/>
<rect width="100" height="100" rx="20" transform="matrix(0.866025 0.5 0 1 225.167 460)" fill="white"/>
<rect width="100" height="100" rx="20" transform="matrix(0.866025 0.5 0 1 0 460)" fill="white"/>
<rect width="100" height="100" rx="20" transform="matrix(0.866025 0.5 0 1 112.583 525)" fill="white"/>
<rect width="100" height="100" rx="20" transform="matrix(0.866025 0.5 0 1 225.167 590)" fill="white"/>
<rect width="100" height="100" rx="20" transform="matrix(0.866025 -0.5 0 1 341.769 380)" fill="white"/>
<rect width="100" height="100" rx="20" transform="matrix(0.866025 -0.5 0 1 454.353 315)" fill="white"/>
<rect width="100" height="100" rx="20" transform="matrix(0.866025 -0.5 0 1 566.936 250)" fill="white"/>
<rect width="100" height="100" rx="20" transform="matrix(0.866025 -0.5 0 1 341.769 510)" fill="white"/>
<rect width="100" height="100" rx="20" transform="matrix(0.866025 -0.5 0 1 454.353 445)" fill="white"/>
<rect width="100" height="100" rx="20" transform="matrix(0.866025 -0.5 0 1 566.936 380)" fill="white"/>
<rect width="100" height="100" rx="20" transform="matrix(0.866025 -0.5 0 1 341.769 640)" fill="white"/>
<rect width="100" height="100" rx="20" transform="matrix(0.866025 -0.5 0 1 454.353 575)" fill="white"/>
<rect width="100" height="100" rx="20" transform="matrix(0.866025 -0.5 0 1 566.936 510)" fill="white"/>
</svg>
