<svg width="422" height="85" viewBox="0 0 422 85" fill="none" xmlns="http://www.w3.org/2000/svg">
<rect x="0.75" y="0.75" width="190" height="56" rx="10" fill="#161616"/>
<rect x="0.75" y="0.75" width="190" height="56" rx="10" stroke="#444444" stroke-width="1.5"/>
<path d="M38.3086 36.75H36.502V24.8359L32.7812 26.252V24.6016L38.1621 22.5312H38.3086V36.75ZM57.4883 36.75L55.2422 26.1836H56.8438L58.0742 32.9219L58.2891 34.4355L58.5527 32.9219L60.2422 26.1836H61.4043L63.084 32.9219L63.3672 34.582L63.6309 32.9219L64.8027 26.1836H66.4043L64.1582 36.75H62.7324L61.082 30.2754L60.8086 28.6348L60.5449 30.2754L58.9141 36.75H57.4883ZM73.1523 36.9453C72.4102 36.9453 71.7266 36.8184 71.1016 36.5645C70.4831 36.3105 69.9525 35.9557 69.5098 35.5C69.0671 35.0443 68.722 34.5039 68.4746 33.8789C68.2272 33.2539 68.1035 32.5736 68.1035 31.8379V31.4277C68.1035 30.5749 68.2402 29.8132 68.5137 29.1426C68.7871 28.4655 69.1517 27.8926 69.6074 27.4238C70.0566 26.9616 70.5677 26.6068 71.1406 26.3594C71.7201 26.112 72.3125 25.9883 72.918 25.9883C73.6797 25.9883 74.3438 26.1217 74.9102 26.3887C75.4831 26.6491 75.9583 27.0104 76.3359 27.4727C76.7135 27.9414 76.9935 28.4915 77.1758 29.123C77.3646 29.7546 77.459 30.4382 77.459 31.1738V31.9844H69.9102V32.0527C69.9557 32.5671 70.0566 33.0195 70.2129 33.4102C70.3757 33.8008 70.597 34.1458 70.877 34.4453C71.1634 34.7643 71.5085 35.015 71.9121 35.1973C72.3158 35.3796 72.7617 35.4707 73.25 35.4707C73.8945 35.4707 74.4674 35.3405 74.9688 35.0801C75.4701 34.8197 75.8867 34.4746 76.2188 34.0449L77.3223 34.9043C76.9707 35.4382 76.4434 35.9134 75.7402 36.3301C75.0436 36.7402 74.181 36.9453 73.1523 36.9453ZM72.918 27.4727C72.5534 27.4727 72.2083 27.541 71.8828 27.6777C71.5573 27.8079 71.2643 28 71.0039 28.2539C70.7435 28.5143 70.5221 28.8333 70.3398 29.2109C70.1641 29.582 70.0404 30.0117 69.9688 30.5H75.6523V30.4121C75.6523 30.0866 75.5905 29.7383 75.4668 29.3672C75.3431 28.9896 75.1706 28.6641 74.9492 28.3906C74.7279 28.1172 74.4479 27.8958 74.1094 27.7266C73.7773 27.5573 73.3802 27.4727 72.918 27.4727ZM85.1641 36.9453C84.4219 36.9453 83.7383 36.8184 83.1133 36.5645C82.4948 36.3105 81.9642 35.9557 81.5215 35.5C81.0788 35.0443 80.7337 34.5039 80.4863 33.8789C80.2389 33.2539 80.1152 32.5736 80.1152 31.8379V31.4277C80.1152 30.5749 80.252 29.8132 80.5254 29.1426C80.7988 28.4655 81.1634 27.8926 81.6191 27.4238C82.0684 26.9616 82.5794 26.6068 83.1523 26.3594C83.7318 26.112 84.3242 25.9883 84.9297 25.9883C85.6914 25.9883 86.3555 26.1217 86.9219 26.3887C87.4948 26.6491 87.9701 27.0104 88.3477 27.4727C88.7253 27.9414 89.0052 28.4915 89.1875 29.123C89.3763 29.7546 89.4707 30.4382 89.4707 31.1738V31.9844H81.9219V32.0527C81.9674 32.5671 82.0684 33.0195 82.2246 33.4102C82.3874 33.8008 82.6087 34.1458 82.8887 34.4453C83.1751 34.7643 83.5202 35.015 83.9238 35.1973C84.3275 35.3796 84.7734 35.4707 85.2617 35.4707C85.9062 35.4707 86.4792 35.3405 86.9805 35.0801C87.4818 34.8197 87.8984 34.4746 88.2305 34.0449L89.334 34.9043C88.9824 35.4382 88.4551 35.9134 87.752 36.3301C87.0553 36.7402 86.1927 36.9453 85.1641 36.9453ZM84.9297 27.4727C84.5651 27.4727 84.2201 27.541 83.8945 27.6777C83.569 27.8079 83.276 28 83.0156 28.2539C82.7552 28.5143 82.5339 28.8333 82.3516 29.2109C82.1758 29.582 82.0521 30.0117 81.9805 30.5H87.6641V30.4121C87.6641 30.0866 87.6022 29.7383 87.4785 29.3672C87.3548 28.9896 87.1823 28.6641 86.9609 28.3906C86.7396 28.1172 86.4596 27.8958 86.1211 27.7266C85.7891 27.5573 85.3919 27.4727 84.9297 27.4727ZM95.6719 31.8184L94.3438 33.0977V36.75H92.5273V21.75H94.3438V30.9297L95.5254 29.6602L98.9922 26.1836H101.189L96.9121 30.5879L101.844 36.75H99.5488L95.6719 31.8184Z" fill="#D9D9D9"/>
<path d="M147.626 35.168L155.33 27.4639C154.281 27.0275 153.039 26.3107 151.865 25.1362C150.69 23.9615 149.973 22.7194 149.537 21.6708L141.833 29.3749C141.232 29.9762 140.931 30.2768 140.672 30.6082C140.367 30.9992 140.106 31.4222 139.893 31.8698C139.712 32.2493 139.577 32.6527 139.309 33.4592L137.891 37.7128C137.758 38.1096 137.862 38.5472 138.158 38.8432C138.453 39.139 138.891 39.2423 139.288 39.11L143.541 37.6921C144.348 37.4233 144.751 37.2889 145.131 37.1081C145.578 36.8947 146.002 36.6333 146.393 36.3283C146.724 36.0697 147.025 35.7691 147.626 35.168Z" fill="#B6B6B6"/>
<path d="M157.467 25.3261C159.067 23.7264 159.067 21.1328 157.467 19.5331C155.867 17.9334 153.274 17.9334 151.674 19.5331L150.75 20.4571C150.763 20.4954 150.776 20.5341 150.789 20.5733C151.128 21.5495 151.767 22.8292 152.969 24.0313C154.171 25.2334 155.451 25.8724 156.427 26.2111C156.466 26.2247 156.505 26.2377 156.543 26.2503L157.467 25.3261Z" fill="#B6B6B6"/>
<path d="M45.4375 79.8613C45.6654 79.8613 45.8864 79.8249 46.1006 79.752C46.3193 79.679 46.513 79.5765 46.6816 79.4443C46.8503 79.3167 46.9847 79.1663 47.085 78.9932C47.1898 78.8154 47.2445 78.624 47.249 78.4189H48.4453C48.4408 78.7471 48.3542 79.0615 48.1855 79.3623C48.0215 79.6585 47.8005 79.9183 47.5225 80.1416C47.2445 80.3695 46.9255 80.5518 46.5654 80.6885C46.2054 80.8206 45.8294 80.8867 45.4375 80.8867C44.877 80.8867 44.387 80.7865 43.9678 80.5859C43.5485 80.3854 43.1999 80.1143 42.9219 79.7725C42.6393 79.4352 42.4274 79.0456 42.2861 78.6035C42.1449 78.1569 42.0742 77.6875 42.0742 77.1953V76.9082C42.0742 76.4206 42.1449 75.9535 42.2861 75.5068C42.4274 75.0602 42.6393 74.666 42.9219 74.3242C43.1999 73.987 43.5485 73.7181 43.9678 73.5176C44.387 73.3171 44.877 73.2168 45.4375 73.2168C45.875 73.2168 46.276 73.2874 46.6406 73.4287C47.0098 73.5654 47.3288 73.7523 47.5977 73.9893C47.862 74.2308 48.0693 74.5156 48.2197 74.8438C48.3701 75.1719 48.4453 75.5228 48.4453 75.8965H47.249C47.2445 75.6732 47.1943 75.4635 47.0986 75.2676C47.0075 75.0671 46.8822 74.8916 46.7227 74.7412C46.5632 74.5908 46.3717 74.4723 46.1484 74.3857C45.9297 74.2992 45.6927 74.2559 45.4375 74.2559C45.0456 74.2559 44.7152 74.3356 44.4463 74.4951C44.182 74.6501 43.9678 74.8529 43.8037 75.1035C43.6396 75.3587 43.5212 75.6436 43.4482 75.958C43.3799 76.2725 43.3457 76.5892 43.3457 76.9082V77.1953C43.3457 77.5189 43.3799 77.8402 43.4482 78.1592C43.5212 78.4736 43.6396 78.7562 43.8037 79.0068C43.9632 79.262 44.1751 79.4694 44.4395 79.6289C44.7083 79.7839 45.041 79.8613 45.4375 79.8613ZM55.5684 80.75L55.4932 79.7314C55.2471 80.096 54.9395 80.3809 54.5703 80.5859C54.2012 80.7865 53.7751 80.8867 53.292 80.8867C52.9046 80.8867 52.5537 80.8275 52.2393 80.709C51.9248 80.5859 51.6559 80.3968 51.4326 80.1416C51.2093 79.8864 51.0361 79.5628 50.9131 79.1709C50.7946 78.7744 50.7354 78.3005 50.7354 77.749V73.3535H52V77.7627C52 78.1637 52.0319 78.4964 52.0957 78.7607C52.1595 79.0251 52.2552 79.2347 52.3828 79.3896C52.5104 79.5492 52.6654 79.6608 52.8477 79.7246C53.0345 79.7884 53.2487 79.8203 53.4902 79.8203C53.7728 79.8203 54.0257 79.7884 54.249 79.7246C54.4723 79.6562 54.666 79.5628 54.8301 79.4443C54.9668 79.3486 55.0853 79.2347 55.1855 79.1025C55.2904 78.9658 55.377 78.8177 55.4453 78.6582V73.3535H56.7168V80.75H55.5684ZM65.3711 77.1338C65.3711 77.4574 65.346 77.7695 65.2959 78.0703C65.2503 78.3665 65.182 78.6445 65.0908 78.9043C64.9678 79.2461 64.806 79.5537 64.6055 79.8271C64.4095 80.096 64.1725 80.3193 63.8945 80.4971C63.694 80.6201 63.473 80.7158 63.2314 80.7842C62.9945 80.8525 62.737 80.8867 62.459 80.8867C62.14 80.8867 61.8483 80.848 61.584 80.7705C61.3242 80.693 61.0895 80.5814 60.8799 80.4355C60.7796 80.3626 60.6839 80.2829 60.5928 80.1963C60.5016 80.1097 60.415 80.014 60.333 79.9092L60.2715 80.75H59.1094V70.25H60.374V74.1465C60.4788 74.0143 60.5951 73.8958 60.7227 73.791C60.8503 73.6816 60.987 73.5882 61.1328 73.5107C61.3151 73.415 61.5156 73.3421 61.7344 73.292C61.9531 73.2419 62.1901 73.2168 62.4453 73.2168C62.7643 73.2168 63.0583 73.2601 63.3271 73.3467C63.596 73.4333 63.8398 73.554 64.0586 73.709C64.2546 73.8548 64.43 74.0326 64.585 74.2422C64.7399 74.4473 64.8766 74.6774 64.9951 74.9326C65.1182 75.2197 65.2116 75.5387 65.2754 75.8896C65.3392 76.236 65.3711 76.6029 65.3711 76.9902V77.1338ZM64.1064 76.9902C64.1064 76.7578 64.0905 76.5322 64.0586 76.3135C64.0312 76.0902 63.988 75.8805 63.9287 75.6846C63.8467 75.443 63.7396 75.222 63.6074 75.0215C63.4753 74.821 63.3135 74.6637 63.1221 74.5498C62.9899 74.4678 62.8418 74.404 62.6777 74.3584C62.5137 74.3128 62.3314 74.29 62.1309 74.29C61.9121 74.29 61.7116 74.3197 61.5293 74.3789C61.347 74.4336 61.1852 74.5111 61.0439 74.6113C60.8981 74.7161 60.7682 74.8392 60.6543 74.9805C60.5449 75.1172 60.4515 75.2676 60.374 75.4316V78.665C60.4561 78.8291 60.5518 78.9818 60.6611 79.123C60.7751 79.2598 60.9049 79.3805 61.0508 79.4854C61.1966 79.5902 61.3607 79.6722 61.543 79.7314C61.7253 79.7861 61.9258 79.8135 62.1445 79.8135C62.3542 79.8135 62.5456 79.7884 62.7188 79.7383C62.8919 79.6836 63.0469 79.6061 63.1836 79.5059C63.3659 79.3783 63.5186 79.2165 63.6416 79.0205C63.7646 78.8245 63.8626 78.6058 63.9355 78.3643C63.9948 78.182 64.0381 77.986 64.0654 77.7764C64.0928 77.5667 64.1064 77.3525 64.1064 77.1338V76.9902ZM70.7783 80.8867C70.2588 80.8867 69.7803 80.7979 69.3428 80.6201C68.9098 80.4424 68.5384 80.194 68.2285 79.875C67.9186 79.556 67.6771 79.1777 67.5039 78.7402C67.3307 78.3027 67.2441 77.8265 67.2441 77.3115V77.0244C67.2441 76.4274 67.3398 75.8942 67.5312 75.4248C67.7227 74.9508 67.9779 74.5498 68.2969 74.2217C68.6113 73.8981 68.9691 73.6497 69.3701 73.4766C69.7757 73.3034 70.1904 73.2168 70.6143 73.2168C71.1475 73.2168 71.6123 73.3102 72.0088 73.4971C72.4098 73.6794 72.7425 73.9323 73.0068 74.2559C73.2712 74.584 73.4671 74.9691 73.5947 75.4111C73.7269 75.8532 73.793 76.3317 73.793 76.8467V77.4141H68.5088V77.4619C68.5407 77.8219 68.6113 78.1387 68.7207 78.4121C68.8346 78.6855 68.9896 78.9271 69.1855 79.1367C69.3861 79.36 69.6276 79.5355 69.9102 79.6631C70.1927 79.7907 70.5049 79.8545 70.8467 79.8545C71.2979 79.8545 71.6989 79.7633 72.0498 79.5811C72.4007 79.3988 72.6924 79.1572 72.9248 78.8564L73.6973 79.458C73.4512 79.8317 73.082 80.1644 72.5898 80.4561C72.1022 80.7432 71.4984 80.8867 70.7783 80.8867ZM70.6143 74.2559C70.359 74.2559 70.1175 74.3037 69.8896 74.3994C69.6618 74.4906 69.4567 74.625 69.2744 74.8027C69.0921 74.985 68.9372 75.2083 68.8096 75.4727C68.6865 75.7324 68.5999 76.0332 68.5498 76.375H72.5283V76.3135C72.5283 76.0856 72.485 75.8418 72.3984 75.582C72.3118 75.3177 72.1911 75.0898 72.0361 74.8984C71.8812 74.707 71.6852 74.5521 71.4482 74.4336C71.2158 74.3151 70.9378 74.2559 70.6143 74.2559ZM84.0879 76.9902C84.0879 76.4388 84.1562 75.9329 84.293 75.4727C84.4342 75.0078 84.6348 74.609 84.8945 74.2764C85.1497 73.9437 85.4596 73.6839 85.8242 73.4971C86.1888 73.3102 86.5967 73.2168 87.0479 73.2168C87.4899 73.2168 87.875 73.292 88.2031 73.4424C88.5358 73.5882 88.8229 73.8024 89.0645 74.085V70.25H90.3291V80.75H89.167L89.1123 79.9707C88.8662 80.2715 88.5723 80.4993 88.2305 80.6543C87.8887 80.8092 87.4899 80.8867 87.0342 80.8867C86.5876 80.8867 86.182 80.791 85.8174 80.5996C85.4574 80.4082 85.1497 80.1439 84.8945 79.8066C84.6393 79.4694 84.4411 79.0729 84.2998 78.6172C84.1585 78.1569 84.0879 77.6624 84.0879 77.1338V76.9902ZM85.3525 77.1338C85.3525 77.4938 85.3913 77.8356 85.4688 78.1592C85.5462 78.4827 85.667 78.7676 85.8311 79.0137C85.9906 79.2598 86.1956 79.4557 86.4463 79.6016C86.6969 79.7428 86.9977 79.8135 87.3486 79.8135C87.7725 79.8135 88.1234 79.7178 88.4014 79.5264C88.6794 79.335 88.9004 79.0775 89.0645 78.7539V75.3223C88.9004 75.0215 88.6794 74.7754 88.4014 74.584C88.1234 74.388 87.777 74.29 87.3623 74.29C87.0068 74.29 86.7015 74.363 86.4463 74.5088C86.1956 74.6546 85.9906 74.8506 85.8311 75.0967C85.667 75.3473 85.5462 75.6367 85.4688 75.9648C85.3913 76.2884 85.3525 76.6302 85.3525 76.9902V77.1338ZM97.6094 80.75L97.5342 79.7314C97.2881 80.096 96.9805 80.3809 96.6113 80.5859C96.2422 80.7865 95.8161 80.8867 95.333 80.8867C94.9456 80.8867 94.5947 80.8275 94.2803 80.709C93.9658 80.5859 93.6969 80.3968 93.4736 80.1416C93.2503 79.8864 93.0771 79.5628 92.9541 79.1709C92.8356 78.7744 92.7764 78.3005 92.7764 77.749V73.3535H94.041V77.7627C94.041 78.1637 94.0729 78.4964 94.1367 78.7607C94.2005 79.0251 94.2962 79.2347 94.4238 79.3896C94.5514 79.5492 94.7064 79.6608 94.8887 79.7246C95.0755 79.7884 95.2897 79.8203 95.5312 79.8203C95.8138 79.8203 96.0667 79.7884 96.29 79.7246C96.5133 79.6562 96.707 79.5628 96.8711 79.4443C97.0078 79.3486 97.1263 79.2347 97.2266 79.1025C97.3314 78.9658 97.418 78.8177 97.4863 78.6582V73.3535H98.7578V80.75H97.6094ZM105.99 73.2168C106.223 73.2168 106.464 73.2327 106.715 73.2646C106.97 73.2965 107.161 73.3398 107.289 73.3945L107.118 74.6318C106.872 74.5771 106.637 74.5384 106.414 74.5156C106.195 74.4883 105.965 74.4746 105.724 74.4746C105.414 74.4746 105.133 74.5133 104.883 74.5908C104.632 74.6637 104.413 74.7731 104.227 74.9189C104.058 75.0465 103.91 75.2038 103.782 75.3906C103.659 75.5729 103.557 75.778 103.475 76.0059V80.75H102.203V73.3535H103.406L103.461 74.3447L103.468 74.5293C103.769 74.1237 104.129 73.8047 104.548 73.5723C104.972 73.3353 105.452 73.2168 105.99 73.2168ZM114.412 80.75C114.362 80.6543 114.321 80.5358 114.289 80.3945C114.262 80.2487 114.241 80.0983 114.228 79.9434C114.1 80.071 113.956 80.1917 113.797 80.3057C113.642 80.4196 113.471 80.5199 113.284 80.6064C113.093 80.693 112.89 80.7614 112.676 80.8115C112.462 80.8617 112.234 80.8867 111.992 80.8867C111.6 80.8867 111.245 80.8298 110.926 80.7158C110.611 80.6019 110.345 80.4469 110.126 80.251C109.903 80.0596 109.729 79.8317 109.606 79.5674C109.488 79.2985 109.429 79.0091 109.429 78.6992C109.429 78.2936 109.508 77.9382 109.668 77.6328C109.832 77.3275 110.062 77.0723 110.358 76.8672C110.655 76.6667 111.01 76.5163 111.425 76.416C111.844 76.3158 112.311 76.2656 112.826 76.2656H114.207V75.6846C114.207 75.4613 114.166 75.2607 114.084 75.083C114.002 74.9053 113.886 74.7526 113.735 74.625C113.585 74.502 113.4 74.4062 113.182 74.3379C112.967 74.2695 112.726 74.2354 112.457 74.2354C112.206 74.2354 111.981 74.2673 111.78 74.3311C111.584 74.3949 111.418 74.4792 111.281 74.584C111.145 74.6888 111.037 74.8141 110.96 74.96C110.887 75.1012 110.851 75.2493 110.851 75.4043H109.579C109.584 75.1354 109.652 74.8711 109.784 74.6113C109.921 74.3516 110.117 74.1169 110.372 73.9072C110.623 73.7021 110.928 73.5358 111.288 73.4082C111.653 73.2806 112.065 73.2168 112.525 73.2168C112.945 73.2168 113.334 73.2692 113.694 73.374C114.054 73.4743 114.367 73.627 114.631 73.832C114.891 74.0417 115.096 74.3014 115.246 74.6113C115.396 74.9212 115.472 75.2835 115.472 75.6982V79.1367C115.472 79.3828 115.494 79.6449 115.54 79.9229C115.586 80.1963 115.649 80.4355 115.731 80.6406V80.75H114.412ZM112.177 79.7861C112.423 79.7861 112.653 79.7542 112.867 79.6904C113.081 79.6266 113.277 79.5423 113.455 79.4375C113.628 79.3327 113.779 79.2142 113.906 79.082C114.034 78.9453 114.134 78.804 114.207 78.6582V77.1611H113.031C112.594 77.1611 112.211 77.1999 111.883 77.2773C111.559 77.3503 111.302 77.4642 111.11 77.6191C110.974 77.7285 110.869 77.8584 110.796 78.0088C110.728 78.1592 110.693 78.3301 110.693 78.5215C110.693 78.7038 110.723 78.8724 110.782 79.0273C110.846 79.1823 110.939 79.3145 111.062 79.4238C111.186 79.5378 111.34 79.6266 111.527 79.6904C111.714 79.7542 111.931 79.7861 112.177 79.7861ZM120.954 71.5625V73.3535H123.771V74.3311H120.954V78.3506C120.954 78.6377 120.991 78.8747 121.063 79.0615C121.136 79.2484 121.237 79.3965 121.364 79.5059C121.492 79.6198 121.638 79.6995 121.802 79.7451C121.97 79.7907 122.148 79.8135 122.335 79.8135C122.472 79.8135 122.613 79.8066 122.759 79.793C122.905 79.7747 123.048 79.7542 123.189 79.7314C123.326 79.7087 123.454 79.6859 123.572 79.6631C123.695 79.6357 123.796 79.613 123.873 79.5947L124.051 80.4902C123.946 80.554 123.818 80.611 123.668 80.6611C123.518 80.7067 123.354 80.7454 123.176 80.7773C122.998 80.8138 122.809 80.8411 122.608 80.8594C122.412 80.8776 122.216 80.8867 122.021 80.8867C121.692 80.8867 121.385 80.8411 121.098 80.75C120.815 80.6543 120.569 80.5039 120.359 80.2988C120.15 80.0983 119.983 79.8385 119.86 79.5195C119.742 79.196 119.683 78.8063 119.683 78.3506V74.3311H117.741V73.3535H119.683V71.5625H120.954ZM126.566 73.3535H130.347V79.6562H132.76V80.75H126.566V79.6562H129.082V74.4541H126.566V73.3535ZM128.918 71.4121C128.918 71.3027 128.934 71.2002 128.966 71.1045C129.002 71.0088 129.057 70.9268 129.13 70.8584C129.189 70.7992 129.264 70.7536 129.355 70.7217C129.451 70.6852 129.558 70.667 129.677 70.667C129.795 70.667 129.9 70.6852 129.991 70.7217C130.082 70.7536 130.158 70.7992 130.217 70.8584C130.29 70.9222 130.344 71.002 130.381 71.0977C130.417 71.1934 130.436 71.2982 130.436 71.4121C130.436 71.6172 130.372 71.7881 130.244 71.9248C130.117 72.0615 129.927 72.1299 129.677 72.1299C129.422 72.1299 129.23 72.0615 129.103 71.9248C128.979 71.7881 128.918 71.6172 128.918 71.4121ZM134.421 76.9834C134.421 76.4502 134.498 75.9557 134.653 75.5C134.808 75.0397 135.032 74.641 135.323 74.3037C135.61 73.9665 135.961 73.7021 136.376 73.5107C136.791 73.3148 137.258 73.2168 137.777 73.2168C138.301 73.2168 138.771 73.3148 139.186 73.5107C139.605 73.7021 139.96 73.9665 140.252 74.3037C140.539 74.641 140.76 75.0397 140.915 75.5C141.07 75.9557 141.147 76.4502 141.147 76.9834V77.1338C141.147 77.667 141.07 78.1615 140.915 78.6172C140.76 79.0729 140.539 79.4694 140.252 79.8066C139.96 80.1439 139.607 80.4082 139.192 80.5996C138.778 80.791 138.311 80.8867 137.791 80.8867C137.267 80.8867 136.795 80.791 136.376 80.5996C135.961 80.4082 135.61 80.1439 135.323 79.8066C135.032 79.4694 134.808 79.0729 134.653 78.6172C134.498 78.1615 134.421 77.667 134.421 77.1338V76.9834ZM135.686 77.1338C135.686 77.4984 135.729 77.847 135.815 78.1797C135.902 78.5078 136.034 78.7972 136.212 79.0479C136.385 79.2985 136.604 79.4967 136.868 79.6426C137.132 79.7884 137.44 79.8613 137.791 79.8613C138.137 79.8613 138.44 79.7884 138.7 79.6426C138.965 79.4967 139.186 79.2985 139.363 79.0479C139.536 78.7972 139.666 78.5078 139.753 78.1797C139.84 77.847 139.883 77.4984 139.883 77.1338V76.9834C139.883 76.6234 139.837 76.2793 139.746 75.9512C139.66 75.6185 139.53 75.3268 139.356 75.0762C139.179 74.8255 138.958 74.6273 138.693 74.4814C138.434 74.3311 138.128 74.2559 137.777 74.2559C137.426 74.2559 137.121 74.3311 136.861 74.4814C136.602 74.6273 136.385 74.8255 136.212 75.0762C136.034 75.3268 135.902 75.6185 135.815 75.9512C135.729 76.2793 135.686 76.6234 135.686 76.9834V77.1338ZM143.185 80.75V73.3535H144.319L144.408 74.4473C144.518 74.2923 144.636 74.151 144.764 74.0234C144.896 73.8913 145.035 73.7773 145.181 73.6816C145.399 73.5358 145.636 73.4242 145.892 73.3467C146.151 73.2646 146.425 73.2214 146.712 73.2168C147.099 73.2168 147.45 73.2715 147.765 73.3809C148.084 73.4902 148.355 73.6611 148.578 73.8936C148.801 74.126 148.972 74.4222 149.091 74.7822C149.214 75.1377 149.275 75.5615 149.275 76.0537V80.75H148.011V76.0811C148.011 75.7529 147.974 75.4749 147.901 75.2471C147.828 75.0192 147.721 74.8346 147.58 74.6934C147.434 74.5521 147.257 74.4495 147.047 74.3857C146.842 74.3219 146.605 74.29 146.336 74.29C146.104 74.29 145.887 74.3242 145.687 74.3926C145.486 74.4564 145.301 74.5452 145.133 74.6592C144.996 74.7594 144.868 74.8757 144.75 75.0078C144.636 75.14 144.536 75.2858 144.449 75.4453V80.75H143.185Z" fill="#D9D9D9"/>
<rect x="230.75" y="0.75" width="190" height="56" rx="10" fill="#161616"/>
<rect x="230.75" y="0.75" width="190" height="56" rx="10" stroke="#444444" stroke-width="1.5"/>
<path d="M266.951 35.4805C267.277 35.4805 267.592 35.4284 267.898 35.3242C268.211 35.2201 268.488 35.0736 268.729 34.8848C268.969 34.7025 269.161 34.4876 269.305 34.2402C269.454 33.9863 269.533 33.7129 269.539 33.4199H271.248C271.242 33.8887 271.118 34.3379 270.877 34.7676C270.643 35.1908 270.327 35.5618 269.93 35.8809C269.533 36.2064 269.077 36.4668 268.562 36.6621C268.048 36.8509 267.511 36.9453 266.951 36.9453C266.15 36.9453 265.451 36.8021 264.852 36.5156C264.253 36.2292 263.755 35.8418 263.357 35.3535C262.954 34.8717 262.651 34.3151 262.449 33.6836C262.247 33.0456 262.146 32.375 262.146 31.6719V31.2617C262.146 30.5651 262.247 29.8978 262.449 29.2598C262.651 28.6217 262.954 28.0586 263.357 27.5703C263.755 27.0885 264.253 26.7044 264.852 26.418C265.451 26.1315 266.15 25.9883 266.951 25.9883C267.576 25.9883 268.149 26.0892 268.67 26.291C269.197 26.4863 269.653 26.7533 270.037 27.0918C270.415 27.4368 270.711 27.8438 270.926 28.3125C271.141 28.7812 271.248 29.2826 271.248 29.8164H269.539C269.533 29.4974 269.461 29.1979 269.324 28.918C269.194 28.6315 269.015 28.3809 268.787 28.166C268.559 27.9512 268.286 27.7819 267.967 27.6582C267.654 27.5345 267.316 27.4727 266.951 27.4727C266.391 27.4727 265.919 27.5866 265.535 27.8145C265.158 28.0358 264.852 28.3255 264.617 28.6836C264.383 29.0482 264.214 29.4551 264.109 29.9043C264.012 30.3535 263.963 30.806 263.963 31.2617V31.6719C263.963 32.1341 264.012 32.5931 264.109 33.0488C264.214 33.498 264.383 33.9017 264.617 34.2598C264.845 34.6243 265.148 34.9206 265.525 35.1484C265.91 35.3698 266.385 35.4805 266.951 35.4805ZM281.424 36.75L281.316 35.2949C280.965 35.8158 280.525 36.2227 279.998 36.5156C279.471 36.8021 278.862 36.9453 278.172 36.9453C277.618 36.9453 277.117 36.8607 276.668 36.6914C276.219 36.5156 275.835 36.2454 275.516 35.8809C275.197 35.5163 274.949 35.054 274.773 34.4941C274.604 33.9277 274.52 33.2507 274.52 32.4629V26.1836H276.326V32.4824C276.326 33.0553 276.372 33.5306 276.463 33.9082C276.554 34.2858 276.691 34.5853 276.873 34.8066C277.055 35.0345 277.277 35.194 277.537 35.2852C277.804 35.3763 278.11 35.4219 278.455 35.4219C278.859 35.4219 279.22 35.3763 279.539 35.2852C279.858 35.1875 280.135 35.054 280.369 34.8848C280.564 34.748 280.734 34.5853 280.877 34.3965C281.027 34.2012 281.15 33.9896 281.248 33.7617V26.1836H283.064V36.75H281.424ZM293.494 33.9473C293.494 33.7324 293.452 33.5404 293.367 33.3711C293.283 33.1953 293.139 33.0358 292.938 32.8926C292.736 32.7493 292.469 32.6191 292.137 32.502C291.805 32.3783 291.391 32.2676 290.896 32.1699C290.291 32.0462 289.738 31.8965 289.236 31.7207C288.742 31.5449 288.318 31.3333 287.967 31.0859C287.609 30.8451 287.332 30.5618 287.137 30.2363C286.941 29.9043 286.844 29.5202 286.844 29.084C286.844 28.6543 286.945 28.2539 287.146 27.8828C287.348 27.5052 287.632 27.1764 287.996 26.8965C288.361 26.6165 288.794 26.3952 289.295 26.2324C289.803 26.0697 290.359 25.9883 290.965 25.9883C291.616 25.9883 292.202 26.0729 292.723 26.2422C293.243 26.4115 293.686 26.6458 294.051 26.9453C294.415 27.2448 294.695 27.5964 294.891 28C295.092 28.3971 295.193 28.8268 295.193 29.2891H293.387C293.387 29.0612 293.328 28.8398 293.211 28.625C293.094 28.4036 292.931 28.2083 292.723 28.0391C292.514 27.8698 292.26 27.7331 291.961 27.6289C291.668 27.5247 291.336 27.4727 290.965 27.4727C290.581 27.4727 290.242 27.515 289.949 27.5996C289.663 27.6842 289.425 27.7982 289.236 27.9414C289.041 28.0846 288.895 28.2507 288.797 28.4395C288.699 28.6283 288.65 28.8236 288.65 29.0254C288.65 29.2337 288.689 29.4193 288.768 29.582C288.846 29.7448 288.982 29.8913 289.178 30.0215C289.367 30.1517 289.62 30.2689 289.939 30.373C290.265 30.4772 290.675 30.5781 291.17 30.6758C291.821 30.8125 292.404 30.972 292.918 31.1543C293.432 31.3301 293.865 31.5417 294.217 31.7891C294.568 32.043 294.835 32.3359 295.018 32.668C295.206 33 295.301 33.3841 295.301 33.8203C295.301 34.2891 295.193 34.7155 294.979 35.0996C294.77 35.4837 294.477 35.8125 294.1 36.0859C293.722 36.3594 293.27 36.571 292.742 36.7207C292.215 36.8704 291.639 36.9453 291.014 36.9453C290.298 36.9453 289.66 36.8509 289.1 36.6621C288.54 36.4668 288.068 36.2096 287.684 35.8906C287.293 35.5781 286.993 35.2135 286.785 34.7969C286.583 34.3802 286.482 33.9473 286.482 33.498H288.289C288.315 33.8691 288.413 34.1816 288.582 34.4355C288.758 34.6895 288.976 34.8945 289.236 35.0508C289.49 35.207 289.773 35.3177 290.086 35.3828C290.398 35.4479 290.708 35.4805 291.014 35.4805C291.495 35.4805 291.915 35.4251 292.273 35.3145C292.632 35.1973 292.911 35.0378 293.113 34.8359C293.237 34.7122 293.331 34.5755 293.396 34.4258C293.462 34.276 293.494 34.1165 293.494 33.9473ZM302.762 23.625V26.1836H306.785V27.5801H302.762V33.3223C302.762 33.7324 302.814 34.071 302.918 34.3379C303.022 34.6048 303.165 34.8164 303.348 34.9727C303.53 35.1354 303.738 35.2493 303.973 35.3145C304.214 35.3796 304.467 35.4121 304.734 35.4121C304.93 35.4121 305.132 35.4023 305.34 35.3828C305.548 35.3568 305.753 35.3275 305.955 35.2949C306.15 35.2624 306.333 35.2298 306.502 35.1973C306.678 35.1582 306.821 35.1257 306.932 35.0996L307.186 36.3789C307.036 36.4701 306.854 36.5514 306.639 36.623C306.424 36.6882 306.189 36.7435 305.936 36.7891C305.682 36.8411 305.411 36.8802 305.125 36.9062C304.845 36.9323 304.565 36.9453 304.285 36.9453C303.816 36.9453 303.377 36.8802 302.967 36.75C302.563 36.6133 302.212 36.3984 301.912 36.1055C301.613 35.819 301.375 35.4479 301.199 34.9922C301.03 34.5299 300.945 33.9733 300.945 33.3223V27.5801H298.172V26.1836H300.945V23.625H302.762ZM309.988 31.3691C309.988 30.6074 310.099 29.901 310.32 29.25C310.542 28.5924 310.861 28.0228 311.277 27.541C311.688 27.0592 312.189 26.6816 312.781 26.4082C313.374 26.1283 314.041 25.9883 314.783 25.9883C315.532 25.9883 316.202 26.1283 316.795 26.4082C317.394 26.6816 317.902 27.0592 318.318 27.541C318.729 28.0228 319.044 28.5924 319.266 29.25C319.487 29.901 319.598 30.6074 319.598 31.3691V31.584C319.598 32.3457 319.487 33.0521 319.266 33.7031C319.044 34.3542 318.729 34.9206 318.318 35.4023C317.902 35.8841 317.397 36.2617 316.805 36.5352C316.212 36.8086 315.545 36.9453 314.803 36.9453C314.054 36.9453 313.38 36.8086 312.781 36.5352C312.189 36.2617 311.688 35.8841 311.277 35.4023C310.861 34.9206 310.542 34.3542 310.32 33.7031C310.099 33.0521 309.988 32.3457 309.988 31.584V31.3691ZM311.795 31.584C311.795 32.1048 311.857 32.6029 311.98 33.0781C312.104 33.5469 312.293 33.9603 312.547 34.3184C312.794 34.6764 313.107 34.9596 313.484 35.168C313.862 35.3763 314.301 35.4805 314.803 35.4805C315.298 35.4805 315.73 35.3763 316.102 35.168C316.479 34.9596 316.795 34.6764 317.049 34.3184C317.296 33.9603 317.482 33.5469 317.605 33.0781C317.729 32.6029 317.791 32.1048 317.791 31.584V31.3691C317.791 30.8548 317.726 30.3633 317.596 29.8945C317.472 29.4193 317.286 29.0026 317.039 28.6445C316.785 28.2865 316.469 28.0033 316.092 27.7949C315.721 27.5801 315.285 27.4727 314.783 27.4727C314.282 27.4727 313.846 27.5801 313.475 27.7949C313.104 28.0033 312.794 28.2865 312.547 28.6445C312.293 29.0026 312.104 29.4193 311.98 29.8945C311.857 30.3633 311.795 30.8548 311.795 31.3691V31.584ZM323.338 26.1836L323.387 27.1797C323.602 26.8086 323.882 26.5189 324.227 26.3105C324.578 26.1022 325.001 25.9948 325.496 25.9883C325.776 25.9883 326.027 26.0208 326.248 26.0859C326.476 26.1445 326.674 26.2324 326.844 26.3496C326.967 26.4408 327.078 26.5514 327.176 26.6816C327.28 26.8118 327.368 26.9583 327.439 27.1211C327.531 26.9714 327.638 26.8314 327.762 26.7012C327.885 26.571 328.019 26.457 328.162 26.3594C328.344 26.2487 328.546 26.1608 328.768 26.0957C328.995 26.0306 329.243 25.9948 329.51 25.9883C329.874 25.9883 330.203 26.0436 330.496 26.1543C330.789 26.2585 331.036 26.4147 331.238 26.623C331.46 26.8574 331.629 27.1634 331.746 27.541C331.863 27.9121 331.922 28.3516 331.922 28.8594V36.75H330.203V28.8398C330.203 28.6185 330.177 28.4232 330.125 28.2539C330.073 28.0846 329.998 27.9447 329.9 27.834C329.796 27.7298 329.666 27.6517 329.51 27.5996C329.36 27.5475 329.184 27.5215 328.982 27.5215C328.768 27.5215 328.582 27.5508 328.426 27.6094C328.27 27.668 328.139 27.7461 328.035 27.8438C327.931 27.9479 327.85 28.0684 327.791 28.2051C327.732 28.3353 327.693 28.4818 327.674 28.6445C327.674 28.6771 327.674 28.7096 327.674 28.7422C327.674 28.7682 327.674 28.8008 327.674 28.8398V36.75H325.955V28.8301C325.955 28.6087 325.929 28.4134 325.877 28.2441C325.831 28.0749 325.757 27.9349 325.652 27.8242C325.555 27.7201 325.431 27.6452 325.281 27.5996C325.138 27.5475 324.969 27.5215 324.773 27.5215C324.559 27.5215 324.37 27.5475 324.207 27.5996C324.051 27.6452 323.917 27.7135 323.807 27.8047C323.722 27.8763 323.647 27.9577 323.582 28.0488C323.523 28.14 323.475 28.2376 323.436 28.3418V36.75H321.717V26.1836H323.338Z" fill="#D9D9D9"/>
<path d="M377.626 35.168L385.33 27.4639C384.281 27.0275 383.039 26.3107 381.865 25.1362C380.69 23.9615 379.973 22.7194 379.537 21.6708L371.833 29.3749C371.232 29.9762 370.931 30.2768 370.672 30.6082C370.367 30.9992 370.106 31.4222 369.893 31.8698C369.712 32.2493 369.577 32.6527 369.309 33.4592L367.891 37.7128C367.758 38.1096 367.862 38.5472 368.158 38.8432C368.453 39.139 368.891 39.2423 369.288 39.11L373.541 37.6921C374.348 37.4233 374.751 37.2889 375.131 37.1081C375.578 36.8947 376.002 36.6333 376.393 36.3283C376.724 36.0697 377.025 35.7691 377.626 35.168Z" fill="#B6B6B6"/>
<path d="M387.467 25.3261C389.067 23.7264 389.067 21.1328 387.467 19.5331C385.867 17.9334 383.274 17.9334 381.674 19.5331L380.75 20.4571C380.763 20.4954 380.776 20.5341 380.789 20.5733C381.128 21.5495 381.767 22.8292 382.969 24.0313C384.171 25.2334 385.451 25.8724 386.427 26.2111C386.466 26.2247 386.505 26.2377 386.543 26.2503L387.467 25.3261Z" fill="#B6B6B6"/>
<path d="M303.602 80.75V74.3311H301.564V73.3535H303.602V72.834C303.602 72.36 303.67 71.9453 303.807 71.5898C303.948 71.2298 304.146 70.929 304.401 70.6875C304.652 70.446 304.955 70.2637 305.311 70.1406C305.666 70.0176 306.062 69.9561 306.5 69.9561C306.682 69.9561 306.862 69.9674 307.04 69.9902C307.218 70.0085 307.393 70.0335 307.566 70.0654C307.68 70.0882 307.794 70.1133 307.908 70.1406C308.022 70.1634 308.138 70.1908 308.257 70.2227L308.106 71.2686C307.92 71.2048 307.701 71.1501 307.45 71.1045C307.204 71.0544 306.94 71.0293 306.657 71.0293C306.37 71.0293 306.115 71.0658 305.892 71.1387C305.673 71.207 305.491 71.3118 305.345 71.4531C305.19 71.599 305.071 71.7881 304.989 72.0205C304.912 72.2529 304.873 72.5241 304.873 72.834V73.3535H307.724V74.3311H304.873V80.75H303.602ZM309.768 76.9834C309.768 76.4502 309.845 75.9557 310 75.5C310.155 75.0397 310.378 74.641 310.67 74.3037C310.957 73.9665 311.308 73.7021 311.723 73.5107C312.137 73.3148 312.604 73.2168 313.124 73.2168C313.648 73.2168 314.118 73.3148 314.532 73.5107C314.951 73.7021 315.307 73.9665 315.599 74.3037C315.886 74.641 316.107 75.0397 316.262 75.5C316.417 75.9557 316.494 76.4502 316.494 76.9834V77.1338C316.494 77.667 316.417 78.1615 316.262 78.6172C316.107 79.0729 315.886 79.4694 315.599 79.8066C315.307 80.1439 314.954 80.4082 314.539 80.5996C314.124 80.791 313.657 80.8867 313.138 80.8867C312.614 80.8867 312.142 80.791 311.723 80.5996C311.308 80.4082 310.957 80.1439 310.67 79.8066C310.378 79.4694 310.155 79.0729 310 78.6172C309.845 78.1615 309.768 77.667 309.768 77.1338V76.9834ZM311.032 77.1338C311.032 77.4984 311.076 77.847 311.162 78.1797C311.249 78.5078 311.381 78.7972 311.559 79.0479C311.732 79.2985 311.951 79.4967 312.215 79.6426C312.479 79.7884 312.787 79.8613 313.138 79.8613C313.484 79.8613 313.787 79.7884 314.047 79.6426C314.311 79.4967 314.532 79.2985 314.71 79.0479C314.883 78.7972 315.013 78.5078 315.1 78.1797C315.186 77.847 315.229 77.4984 315.229 77.1338V76.9834C315.229 76.6234 315.184 76.2793 315.093 75.9512C315.006 75.6185 314.876 75.3268 314.703 75.0762C314.525 74.8255 314.304 74.6273 314.04 74.4814C313.78 74.3311 313.475 74.2559 313.124 74.2559C312.773 74.2559 312.468 74.3311 312.208 74.4814C311.948 74.6273 311.732 74.8255 311.559 75.0762C311.381 75.3268 311.249 75.6185 311.162 75.9512C311.076 76.2793 311.032 76.6234 311.032 76.9834V77.1338ZM323.378 73.2168C323.61 73.2168 323.852 73.2327 324.103 73.2646C324.358 73.2965 324.549 73.3398 324.677 73.3945L324.506 74.6318C324.26 74.5771 324.025 74.5384 323.802 74.5156C323.583 74.4883 323.353 74.4746 323.111 74.4746C322.801 74.4746 322.521 74.5133 322.271 74.5908C322.02 74.6637 321.801 74.7731 321.614 74.9189C321.446 75.0465 321.298 75.2038 321.17 75.3906C321.047 75.5729 320.944 75.778 320.862 76.0059V80.75H319.591V73.3535H320.794L320.849 74.3447L320.855 74.5293C321.156 74.1237 321.516 73.8047 321.936 73.5723C322.359 73.3353 322.84 73.2168 323.378 73.2168ZM327.521 73.3535L327.555 74.0508C327.705 73.791 327.901 73.5882 328.143 73.4424C328.389 73.2965 328.685 73.2214 329.031 73.2168C329.227 73.2168 329.403 73.2396 329.558 73.2852C329.717 73.3262 329.856 73.3877 329.975 73.4697C330.061 73.5335 330.139 73.611 330.207 73.7021C330.28 73.7933 330.341 73.8958 330.392 74.0098C330.455 73.9049 330.531 73.807 330.617 73.7158C330.704 73.6247 330.797 73.5449 330.897 73.4766C331.025 73.3991 331.166 73.3376 331.321 73.292C331.481 73.2464 331.654 73.2214 331.841 73.2168C332.096 73.2168 332.326 73.2555 332.531 73.333C332.736 73.4059 332.91 73.5153 333.051 73.6611C333.206 73.8252 333.324 74.0394 333.406 74.3037C333.488 74.5635 333.529 74.8711 333.529 75.2266V80.75H332.326V75.2129C332.326 75.0579 332.308 74.9212 332.271 74.8027C332.235 74.6842 332.183 74.5863 332.114 74.5088C332.041 74.4359 331.95 74.3812 331.841 74.3447C331.736 74.3083 331.613 74.29 331.472 74.29C331.321 74.29 331.191 74.3105 331.082 74.3516C330.973 74.3926 330.882 74.4473 330.809 74.5156C330.736 74.5885 330.679 74.6729 330.638 74.7686C330.597 74.8597 330.569 74.9622 330.556 75.0762C330.556 75.099 330.556 75.1217 330.556 75.1445C330.556 75.1628 330.556 75.1855 330.556 75.2129V80.75H329.353V75.2061C329.353 75.0511 329.334 74.9144 329.298 74.7959C329.266 74.6774 329.214 74.5794 329.141 74.502C329.072 74.429 328.986 74.3766 328.881 74.3447C328.781 74.3083 328.662 74.29 328.525 74.29C328.375 74.29 328.243 74.3083 328.129 74.3447C328.02 74.3766 327.926 74.4245 327.849 74.4883C327.789 74.5384 327.737 74.5954 327.691 74.6592C327.65 74.723 327.616 74.7913 327.589 74.8643V80.75H326.386V73.3535H327.521ZM340.208 80.75C340.158 80.6543 340.117 80.5358 340.085 80.3945C340.058 80.2487 340.037 80.0983 340.023 79.9434C339.896 80.071 339.752 80.1917 339.593 80.3057C339.438 80.4196 339.267 80.5199 339.08 80.6064C338.889 80.693 338.686 80.7614 338.472 80.8115C338.257 80.8617 338.03 80.8867 337.788 80.8867C337.396 80.8867 337.041 80.8298 336.722 80.7158C336.407 80.6019 336.141 80.4469 335.922 80.251C335.699 80.0596 335.525 79.8317 335.402 79.5674C335.284 79.2985 335.225 79.0091 335.225 78.6992C335.225 78.2936 335.304 77.9382 335.464 77.6328C335.628 77.3275 335.858 77.0723 336.154 76.8672C336.451 76.6667 336.806 76.5163 337.221 76.416C337.64 76.3158 338.107 76.2656 338.622 76.2656H340.003V75.6846C340.003 75.4613 339.962 75.2607 339.88 75.083C339.798 74.9053 339.682 74.7526 339.531 74.625C339.381 74.502 339.196 74.4062 338.978 74.3379C338.763 74.2695 338.522 74.2354 338.253 74.2354C338.002 74.2354 337.777 74.2673 337.576 74.3311C337.38 74.3949 337.214 74.4792 337.077 74.584C336.94 74.6888 336.833 74.8141 336.756 74.96C336.683 75.1012 336.646 75.2493 336.646 75.4043H335.375C335.38 75.1354 335.448 74.8711 335.58 74.6113C335.717 74.3516 335.913 74.1169 336.168 73.9072C336.419 73.7021 336.724 73.5358 337.084 73.4082C337.449 73.2806 337.861 73.2168 338.321 73.2168C338.741 73.2168 339.13 73.2692 339.49 73.374C339.85 73.4743 340.162 73.627 340.427 73.832C340.687 74.0417 340.892 74.3014 341.042 74.6113C341.192 74.9212 341.268 75.2835 341.268 75.6982V79.1367C341.268 79.3828 341.29 79.6449 341.336 79.9229C341.382 80.1963 341.445 80.4355 341.527 80.6406V80.75H340.208ZM337.973 79.7861C338.219 79.7861 338.449 79.7542 338.663 79.6904C338.877 79.6266 339.073 79.5423 339.251 79.4375C339.424 79.3327 339.575 79.2142 339.702 79.082C339.83 78.9453 339.93 78.804 340.003 78.6582V77.1611H338.827C338.39 77.1611 338.007 77.1999 337.679 77.2773C337.355 77.3503 337.098 77.4642 336.906 77.6191C336.77 77.7285 336.665 77.8584 336.592 78.0088C336.523 78.1592 336.489 78.3301 336.489 78.5215C336.489 78.7038 336.519 78.8724 336.578 79.0273C336.642 79.1823 336.735 79.3145 336.858 79.4238C336.981 79.5378 337.136 79.6266 337.323 79.6904C337.51 79.7542 337.727 79.7861 337.973 79.7861ZM346.75 71.5625V73.3535H349.566V74.3311H346.75V78.3506C346.75 78.6377 346.786 78.8747 346.859 79.0615C346.932 79.2484 347.033 79.3965 347.16 79.5059C347.288 79.6198 347.434 79.6995 347.598 79.7451C347.766 79.7907 347.944 79.8135 348.131 79.8135C348.268 79.8135 348.409 79.8066 348.555 79.793C348.701 79.7747 348.844 79.7542 348.985 79.7314C349.122 79.7087 349.25 79.6859 349.368 79.6631C349.491 79.6357 349.591 79.613 349.669 79.5947L349.847 80.4902C349.742 80.554 349.614 80.611 349.464 80.6611C349.313 80.7067 349.149 80.7454 348.972 80.7773C348.794 80.8138 348.605 80.8411 348.404 80.8594C348.208 80.8776 348.012 80.8867 347.816 80.8867C347.488 80.8867 347.181 80.8411 346.894 80.75C346.611 80.6543 346.365 80.5039 346.155 80.2988C345.946 80.0983 345.779 79.8385 345.656 79.5195C345.538 79.196 345.479 78.8063 345.479 78.3506V74.3311H343.537V73.3535H345.479V71.5625H346.75Z" fill="#D9D9D9"/>
</svg>
