<svg width="506" height="98" viewBox="0 0 506 98" fill="none" xmlns="http://www.w3.org/2000/svg">
<rect width="238" height="34" rx="8" fill="#C1C7DF"/>
<path d="M100.576 22V15.5811H98.5391V14.6035H100.576V14.084C100.576 13.61 100.645 13.1953 100.781 12.8398C100.923 12.4798 101.121 12.179 101.376 11.9375C101.627 11.696 101.93 11.5137 102.285 11.3906C102.641 11.2676 103.037 11.2061 103.475 11.2061C103.657 11.2061 103.837 11.2174 104.015 11.2402C104.192 11.2585 104.368 11.2835 104.541 11.3154C104.655 11.3382 104.769 11.3633 104.883 11.3906C104.997 11.4134 105.113 11.4408 105.231 11.4727L105.081 12.5186C104.894 12.4548 104.675 12.4001 104.425 12.3545C104.179 12.3044 103.914 12.2793 103.632 12.2793C103.345 12.2793 103.09 12.3158 102.866 12.3887C102.647 12.457 102.465 12.5618 102.319 12.7031C102.164 12.849 102.046 13.0381 101.964 13.2705C101.886 13.5029 101.848 13.7741 101.848 14.084V14.6035H104.698V15.5811H101.848V22H100.576ZM111.944 14.4668C112.177 14.4668 112.418 14.4827 112.669 14.5146C112.924 14.5465 113.116 14.5898 113.243 14.6445L113.072 15.8818C112.826 15.8271 112.591 15.7884 112.368 15.7656C112.149 15.7383 111.919 15.7246 111.678 15.7246C111.368 15.7246 111.088 15.7633 110.837 15.8408C110.586 15.9137 110.368 16.0231 110.181 16.1689C110.012 16.2965 109.864 16.4538 109.736 16.6406C109.613 16.8229 109.511 17.028 109.429 17.2559V22H108.157V14.6035H109.36L109.415 15.5947L109.422 15.7793C109.723 15.3737 110.083 15.0547 110.502 14.8223C110.926 14.5853 111.407 14.4668 111.944 14.4668ZM115.15 18.2334C115.15 17.7002 115.228 17.2057 115.383 16.75C115.538 16.2897 115.761 15.891 116.053 15.5537C116.34 15.2165 116.691 14.9521 117.105 14.7607C117.52 14.5648 117.987 14.4668 118.507 14.4668C119.031 14.4668 119.5 14.5648 119.915 14.7607C120.334 14.9521 120.69 15.2165 120.981 15.5537C121.269 15.891 121.49 16.2897 121.645 16.75C121.799 17.2057 121.877 17.7002 121.877 18.2334V18.3838C121.877 18.917 121.799 19.4115 121.645 19.8672C121.49 20.3229 121.269 20.7194 120.981 21.0566C120.69 21.3939 120.337 21.6582 119.922 21.8496C119.507 22.041 119.04 22.1367 118.521 22.1367C117.996 22.1367 117.525 22.041 117.105 21.8496C116.691 21.6582 116.34 21.3939 116.053 21.0566C115.761 20.7194 115.538 20.3229 115.383 19.8672C115.228 19.4115 115.15 18.917 115.15 18.3838V18.2334ZM116.415 18.3838C116.415 18.7484 116.458 19.097 116.545 19.4297C116.632 19.7578 116.764 20.0472 116.941 20.2979C117.115 20.5485 117.333 20.7467 117.598 20.8926C117.862 21.0384 118.17 21.1113 118.521 21.1113C118.867 21.1113 119.17 21.0384 119.43 20.8926C119.694 20.7467 119.915 20.5485 120.093 20.2979C120.266 20.0472 120.396 19.7578 120.482 19.4297C120.569 19.097 120.612 18.7484 120.612 18.3838V18.2334C120.612 17.8734 120.567 17.5293 120.476 17.2012C120.389 16.8685 120.259 16.5768 120.086 16.3262C119.908 16.0755 119.687 15.8773 119.423 15.7314C119.163 15.5811 118.858 15.5059 118.507 15.5059C118.156 15.5059 117.851 15.5811 117.591 15.7314C117.331 15.8773 117.115 16.0755 116.941 16.3262C116.764 16.5768 116.632 16.8685 116.545 17.2012C116.458 17.5293 116.415 17.8734 116.415 18.2334V18.3838ZM128.829 20.0381C128.829 19.8877 128.799 19.7533 128.74 19.6348C128.681 19.5117 128.581 19.4001 128.439 19.2998C128.298 19.1995 128.111 19.1084 127.879 19.0264C127.646 18.9398 127.357 18.8623 127.011 18.7939C126.587 18.7074 126.2 18.6025 125.849 18.4795C125.502 18.3564 125.206 18.2083 124.96 18.0352C124.709 17.8665 124.516 17.6683 124.379 17.4404C124.242 17.208 124.174 16.9391 124.174 16.6338C124.174 16.333 124.244 16.0527 124.386 15.793C124.527 15.5286 124.725 15.2985 124.98 15.1025C125.236 14.9066 125.539 14.7516 125.89 14.6377C126.245 14.5238 126.635 14.4668 127.059 14.4668C127.514 14.4668 127.924 14.526 128.289 14.6445C128.654 14.763 128.964 14.9271 129.219 15.1367C129.474 15.3464 129.67 15.5924 129.807 15.875C129.948 16.153 130.019 16.4538 130.019 16.7773H128.754C128.754 16.6178 128.713 16.4629 128.631 16.3125C128.549 16.1576 128.435 16.0208 128.289 15.9023C128.143 15.7839 127.965 15.6882 127.756 15.6152C127.551 15.5423 127.318 15.5059 127.059 15.5059C126.79 15.5059 126.553 15.5355 126.348 15.5947C126.147 15.654 125.981 15.7337 125.849 15.834C125.712 15.9342 125.609 16.0505 125.541 16.1826C125.473 16.3148 125.438 16.4515 125.438 16.5928C125.438 16.7386 125.466 16.8685 125.521 16.9824C125.575 17.0964 125.671 17.1989 125.808 17.29C125.94 17.3812 126.118 17.4632 126.341 17.5361C126.569 17.609 126.856 17.6797 127.202 17.748C127.658 17.8438 128.066 17.9554 128.426 18.083C128.786 18.2061 129.089 18.3542 129.335 18.5273C129.581 18.7051 129.768 18.9102 129.896 19.1426C130.028 19.375 130.094 19.6439 130.094 19.9492C130.094 20.2773 130.019 20.5758 129.868 20.8447C129.722 21.1136 129.517 21.3438 129.253 21.5352C128.989 21.7266 128.672 21.8747 128.303 21.9795C127.934 22.0843 127.53 22.1367 127.093 22.1367C126.591 22.1367 126.145 22.0706 125.753 21.9385C125.361 21.8018 125.031 21.6217 124.762 21.3984C124.488 21.1797 124.279 20.9245 124.133 20.6328C123.992 20.3411 123.921 20.0381 123.921 19.7236H125.186C125.204 19.9834 125.272 20.2021 125.391 20.3799C125.514 20.5576 125.666 20.7012 125.849 20.8105C126.026 20.9199 126.225 20.9974 126.443 21.043C126.662 21.0885 126.879 21.1113 127.093 21.1113C127.43 21.1113 127.724 21.0726 127.975 20.9951C128.225 20.9131 128.421 20.8014 128.562 20.6602C128.649 20.5736 128.715 20.4779 128.761 20.373C128.806 20.2682 128.829 20.1566 128.829 20.0381ZM135.316 12.8125V14.6035H138.133V15.5811H135.316V19.6006C135.316 19.8877 135.353 20.1247 135.426 20.3115C135.499 20.4984 135.599 20.6465 135.727 20.7559C135.854 20.8698 136 20.9495 136.164 20.9951C136.333 21.0407 136.51 21.0635 136.697 21.0635C136.834 21.0635 136.975 21.0566 137.121 21.043C137.267 21.0247 137.41 21.0042 137.552 20.9814C137.688 20.9587 137.816 20.9359 137.935 20.9131C138.058 20.8857 138.158 20.863 138.235 20.8447L138.413 21.7402C138.308 21.804 138.181 21.861 138.03 21.9111C137.88 21.9567 137.716 21.9954 137.538 22.0273C137.36 22.0638 137.171 22.0911 136.971 22.1094C136.775 22.1276 136.579 22.1367 136.383 22.1367C136.055 22.1367 135.747 22.0911 135.46 22C135.177 21.9043 134.931 21.7539 134.722 21.5488C134.512 21.3483 134.346 21.0885 134.223 20.7695C134.104 20.446 134.045 20.0563 134.045 19.6006V15.5811H132.104V14.6035H134.045V12.8125H135.316Z" fill="#485D71"/>
<rect x="268" width="238" height="34" rx="8" fill="#161616"/>
<path d="M338.104 20.0381C338.104 19.8877 338.075 19.7533 338.016 19.6348C337.956 19.5117 337.856 19.4001 337.715 19.2998C337.574 19.1995 337.387 19.1084 337.154 19.0264C336.922 18.9398 336.632 18.8623 336.286 18.7939C335.862 18.7074 335.475 18.6025 335.124 18.4795C334.778 18.3564 334.481 18.2083 334.235 18.0352C333.985 17.8665 333.791 17.6683 333.654 17.4404C333.518 17.208 333.449 16.9391 333.449 16.6338C333.449 16.333 333.52 16.0527 333.661 15.793C333.802 15.5286 334.001 15.2985 334.256 15.1025C334.511 14.9066 334.814 14.7516 335.165 14.6377C335.521 14.5238 335.91 14.4668 336.334 14.4668C336.79 14.4668 337.2 14.526 337.564 14.6445C337.929 14.763 338.239 14.9271 338.494 15.1367C338.749 15.3464 338.945 15.5924 339.082 15.875C339.223 16.153 339.294 16.4538 339.294 16.7773H338.029C338.029 16.6178 337.988 16.4629 337.906 16.3125C337.824 16.1576 337.71 16.0208 337.564 15.9023C337.419 15.7839 337.241 15.6882 337.031 15.6152C336.826 15.5423 336.594 15.5059 336.334 15.5059C336.065 15.5059 335.828 15.5355 335.623 15.5947C335.423 15.654 335.256 15.7337 335.124 15.834C334.987 15.9342 334.885 16.0505 334.816 16.1826C334.748 16.3148 334.714 16.4515 334.714 16.5928C334.714 16.7386 334.741 16.8685 334.796 16.9824C334.851 17.0964 334.946 17.1989 335.083 17.29C335.215 17.3812 335.393 17.4632 335.616 17.5361C335.844 17.609 336.131 17.6797 336.478 17.748C336.933 17.8438 337.341 17.9554 337.701 18.083C338.061 18.2061 338.364 18.3542 338.61 18.5273C338.856 18.7051 339.043 18.9102 339.171 19.1426C339.303 19.375 339.369 19.6439 339.369 19.9492C339.369 20.2773 339.294 20.5758 339.144 20.8447C338.998 21.1136 338.793 21.3438 338.528 21.5352C338.264 21.7266 337.947 21.8747 337.578 21.9795C337.209 22.0843 336.806 22.1367 336.368 22.1367C335.867 22.1367 335.42 22.0706 335.028 21.9385C334.636 21.8018 334.306 21.6217 334.037 21.3984C333.764 21.1797 333.554 20.9245 333.408 20.6328C333.267 20.3411 333.196 20.0381 333.196 19.7236H334.461C334.479 19.9834 334.548 20.2021 334.666 20.3799C334.789 20.5576 334.942 20.7012 335.124 20.8105C335.302 20.9199 335.5 20.9974 335.719 21.043C335.938 21.0885 336.154 21.1113 336.368 21.1113C336.705 21.1113 336.999 21.0726 337.25 20.9951C337.501 20.9131 337.697 20.8014 337.838 20.6602C337.924 20.5736 337.991 20.4779 338.036 20.373C338.082 20.2682 338.104 20.1566 338.104 20.0381ZM344.592 12.8125V14.6035H347.408V15.5811H344.592V19.6006C344.592 19.8877 344.628 20.1247 344.701 20.3115C344.774 20.4984 344.874 20.6465 345.002 20.7559C345.13 20.8698 345.275 20.9495 345.439 20.9951C345.608 21.0407 345.786 21.0635 345.973 21.0635C346.109 21.0635 346.251 21.0566 346.396 21.043C346.542 21.0247 346.686 21.0042 346.827 20.9814C346.964 20.9587 347.091 20.9359 347.21 20.9131C347.333 20.8857 347.433 20.863 347.511 20.8447L347.688 21.7402C347.584 21.804 347.456 21.861 347.306 21.9111C347.155 21.9567 346.991 21.9954 346.813 22.0273C346.636 22.0638 346.447 22.0911 346.246 22.1094C346.05 22.1276 345.854 22.1367 345.658 22.1367C345.33 22.1367 345.022 22.0911 344.735 22C344.453 21.9043 344.207 21.7539 343.997 21.5488C343.787 21.3483 343.621 21.0885 343.498 20.7695C343.38 20.446 343.32 20.0563 343.32 19.6006V15.5811H341.379V14.6035H343.32V12.8125H344.592ZM354.866 22C354.816 21.9043 354.775 21.7858 354.743 21.6445C354.716 21.4987 354.695 21.3483 354.682 21.1934C354.554 21.321 354.41 21.4417 354.251 21.5557C354.096 21.6696 353.925 21.7699 353.738 21.8564C353.547 21.943 353.344 22.0114 353.13 22.0615C352.916 22.1117 352.688 22.1367 352.446 22.1367C352.054 22.1367 351.699 22.0798 351.38 21.9658C351.065 21.8519 350.799 21.6969 350.58 21.501C350.357 21.3096 350.184 21.0817 350.061 20.8174C349.942 20.5485 349.883 20.2591 349.883 19.9492C349.883 19.5436 349.963 19.1882 350.122 18.8828C350.286 18.5775 350.516 18.3223 350.812 18.1172C351.109 17.9167 351.464 17.7663 351.879 17.666C352.298 17.5658 352.765 17.5156 353.28 17.5156H354.661V16.9346C354.661 16.7113 354.62 16.5107 354.538 16.333C354.456 16.1553 354.34 16.0026 354.189 15.875C354.039 15.752 353.854 15.6562 353.636 15.5879C353.422 15.5195 353.18 15.4854 352.911 15.4854C352.66 15.4854 352.435 15.5173 352.234 15.5811C352.038 15.6449 351.872 15.7292 351.735 15.834C351.599 15.9388 351.492 16.0641 351.414 16.21C351.341 16.3512 351.305 16.4993 351.305 16.6543H350.033C350.038 16.3854 350.106 16.1211 350.238 15.8613C350.375 15.6016 350.571 15.3669 350.826 15.1572C351.077 14.9521 351.382 14.7858 351.742 14.6582C352.107 14.5306 352.519 14.4668 352.979 14.4668C353.399 14.4668 353.788 14.5192 354.148 14.624C354.508 14.7243 354.821 14.877 355.085 15.082C355.345 15.2917 355.55 15.5514 355.7 15.8613C355.851 16.1712 355.926 16.5335 355.926 16.9482V20.3867C355.926 20.6328 355.949 20.8949 355.994 21.1729C356.04 21.4463 356.104 21.6855 356.186 21.8906V22H354.866ZM352.631 21.0361C352.877 21.0361 353.107 21.0042 353.321 20.9404C353.535 20.8766 353.731 20.7923 353.909 20.6875C354.082 20.5827 354.233 20.4642 354.36 20.332C354.488 20.1953 354.588 20.054 354.661 19.9082V18.4111H353.485C353.048 18.4111 352.665 18.4499 352.337 18.5273C352.013 18.6003 351.756 18.7142 351.564 18.8691C351.428 18.9785 351.323 19.1084 351.25 19.2588C351.182 19.4092 351.147 19.5801 351.147 19.7715C351.147 19.9538 351.177 20.1224 351.236 20.2773C351.3 20.4323 351.394 20.5645 351.517 20.6738C351.64 20.7878 351.795 20.8766 351.981 20.9404C352.168 21.0042 352.385 21.0361 352.631 21.0361ZM358.414 22V14.6035H359.549L359.638 15.6973C359.747 15.5423 359.866 15.401 359.993 15.2734C360.125 15.1413 360.264 15.0273 360.41 14.9316C360.629 14.7858 360.866 14.6742 361.121 14.5967C361.381 14.5146 361.654 14.4714 361.941 14.4668C362.329 14.4668 362.68 14.5215 362.994 14.6309C363.313 14.7402 363.584 14.9111 363.808 15.1436C364.031 15.376 364.202 15.6722 364.32 16.0322C364.443 16.3877 364.505 16.8115 364.505 17.3037V22H363.24V17.3311C363.24 17.0029 363.204 16.7249 363.131 16.4971C363.058 16.2692 362.951 16.0846 362.81 15.9434C362.664 15.8021 362.486 15.6995 362.276 15.6357C362.071 15.5719 361.834 15.54 361.565 15.54C361.333 15.54 361.117 15.5742 360.916 15.6426C360.715 15.7064 360.531 15.7952 360.362 15.9092C360.226 16.0094 360.098 16.1257 359.979 16.2578C359.866 16.39 359.765 16.5358 359.679 16.6953V22H358.414ZM366.583 18.2402C366.583 17.6888 366.651 17.1829 366.788 16.7227C366.929 16.2578 367.13 15.859 367.39 15.5264C367.645 15.1937 367.955 14.9339 368.319 14.7471C368.684 14.5602 369.092 14.4668 369.543 14.4668C369.985 14.4668 370.37 14.542 370.698 14.6924C371.031 14.8382 371.318 15.0524 371.56 15.335V11.5H372.824V22H371.662L371.607 21.2207C371.361 21.5215 371.067 21.7493 370.726 21.9043C370.384 22.0592 369.985 22.1367 369.529 22.1367C369.083 22.1367 368.677 22.041 368.312 21.8496C367.952 21.6582 367.645 21.3939 367.39 21.0566C367.134 20.7194 366.936 20.3229 366.795 19.8672C366.654 19.4069 366.583 18.9124 366.583 18.3838V18.2402ZM367.848 18.3838C367.848 18.7438 367.886 19.0856 367.964 19.4092C368.041 19.7327 368.162 20.0176 368.326 20.2637C368.486 20.5098 368.691 20.7057 368.941 20.8516C369.192 20.9928 369.493 21.0635 369.844 21.0635C370.268 21.0635 370.618 20.9678 370.896 20.7764C371.174 20.585 371.396 20.3275 371.56 20.0039V16.5723C371.396 16.2715 371.174 16.0254 370.896 15.834C370.618 15.638 370.272 15.54 369.857 15.54C369.502 15.54 369.197 15.613 368.941 15.7588C368.691 15.9046 368.486 16.1006 368.326 16.3467C368.162 16.5973 368.041 16.8867 367.964 17.2148C367.886 17.5384 367.848 17.8802 367.848 18.2402V18.3838ZM380.091 22C380.041 21.9043 380 21.7858 379.968 21.6445C379.94 21.4987 379.92 21.3483 379.906 21.1934C379.779 21.321 379.635 21.4417 379.476 21.5557C379.321 21.6696 379.15 21.7699 378.963 21.8564C378.771 21.943 378.569 22.0114 378.354 22.0615C378.14 22.1117 377.912 22.1367 377.671 22.1367C377.279 22.1367 376.924 22.0798 376.604 21.9658C376.29 21.8519 376.023 21.6969 375.805 21.501C375.581 21.3096 375.408 21.0817 375.285 20.8174C375.167 20.5485 375.107 20.2591 375.107 19.9492C375.107 19.5436 375.187 19.1882 375.347 18.8828C375.511 18.5775 375.741 18.3223 376.037 18.1172C376.333 17.9167 376.689 17.7663 377.104 17.666C377.523 17.5658 377.99 17.5156 378.505 17.5156H379.886V16.9346C379.886 16.7113 379.845 16.5107 379.763 16.333C379.681 16.1553 379.564 16.0026 379.414 15.875C379.264 15.752 379.079 15.6562 378.86 15.5879C378.646 15.5195 378.405 15.4854 378.136 15.4854C377.885 15.4854 377.66 15.5173 377.459 15.5811C377.263 15.6449 377.097 15.7292 376.96 15.834C376.823 15.9388 376.716 16.0641 376.639 16.21C376.566 16.3512 376.529 16.4993 376.529 16.6543H375.258C375.262 16.3854 375.331 16.1211 375.463 15.8613C375.6 15.6016 375.796 15.3669 376.051 15.1572C376.301 14.9521 376.607 14.7858 376.967 14.6582C377.331 14.5306 377.744 14.4668 378.204 14.4668C378.623 14.4668 379.013 14.5192 379.373 14.624C379.733 14.7243 380.045 14.877 380.31 15.082C380.569 15.2917 380.774 15.5514 380.925 15.8613C381.075 16.1712 381.15 16.5335 381.15 16.9482V20.3867C381.15 20.6328 381.173 20.8949 381.219 21.1729C381.264 21.4463 381.328 21.6855 381.41 21.8906V22H380.091ZM377.855 21.0361C378.102 21.0361 378.332 21.0042 378.546 20.9404C378.76 20.8766 378.956 20.7923 379.134 20.6875C379.307 20.5827 379.457 20.4642 379.585 20.332C379.713 20.1953 379.813 20.054 379.886 19.9082V18.4111H378.71C378.272 18.4111 377.89 18.4499 377.562 18.5273C377.238 18.6003 376.98 18.7142 376.789 18.8691C376.652 18.9785 376.548 19.1084 376.475 19.2588C376.406 19.4092 376.372 19.5801 376.372 19.7715C376.372 19.9538 376.402 20.1224 376.461 20.2773C376.525 20.4323 376.618 20.5645 376.741 20.6738C376.864 20.7878 377.019 20.8766 377.206 20.9404C377.393 21.0042 377.609 21.0361 377.855 21.0361ZM388.485 14.4668C388.718 14.4668 388.959 14.4827 389.21 14.5146C389.465 14.5465 389.657 14.5898 389.784 14.6445L389.613 15.8818C389.367 15.8271 389.132 15.7884 388.909 15.7656C388.69 15.7383 388.46 15.7246 388.219 15.7246C387.909 15.7246 387.629 15.7633 387.378 15.8408C387.127 15.9137 386.909 16.0231 386.722 16.1689C386.553 16.2965 386.405 16.4538 386.277 16.6406C386.154 16.8229 386.052 17.028 385.97 17.2559V22H384.698V14.6035H385.901L385.956 15.5947L385.963 15.7793C386.264 15.3737 386.624 15.0547 387.043 14.8223C387.467 14.5853 387.948 14.4668 388.485 14.4668ZM391.808 18.2402C391.808 17.6888 391.876 17.1829 392.013 16.7227C392.154 16.2578 392.354 15.859 392.614 15.5264C392.869 15.1937 393.179 14.9339 393.544 14.7471C393.909 14.5602 394.316 14.4668 394.768 14.4668C395.21 14.4668 395.595 14.542 395.923 14.6924C396.256 14.8382 396.543 15.0524 396.784 15.335V11.5H398.049V22H396.887L396.832 21.2207C396.586 21.5215 396.292 21.7493 395.95 21.9043C395.608 22.0592 395.21 22.1367 394.754 22.1367C394.307 22.1367 393.902 22.041 393.537 21.8496C393.177 21.6582 392.869 21.3939 392.614 21.0566C392.359 20.7194 392.161 20.3229 392.02 19.8672C391.878 19.4069 391.808 18.9124 391.808 18.3838V18.2402ZM393.072 18.3838C393.072 18.7438 393.111 19.0856 393.188 19.4092C393.266 19.7327 393.387 20.0176 393.551 20.2637C393.71 20.5098 393.915 20.7057 394.166 20.8516C394.417 20.9928 394.717 21.0635 395.068 21.0635C395.492 21.0635 395.843 20.9678 396.121 20.7764C396.399 20.585 396.62 20.3275 396.784 20.0039V16.5723C396.62 16.2715 396.399 16.0254 396.121 15.834C395.843 15.638 395.497 15.54 395.082 15.54C394.727 15.54 394.421 15.613 394.166 15.7588C393.915 15.9046 393.71 16.1006 393.551 16.3467C393.387 16.5973 393.266 16.8867 393.188 17.2148C393.111 17.5384 393.072 17.8802 393.072 18.2402V18.3838ZM408.624 18.2402C408.624 17.6888 408.692 17.1829 408.829 16.7227C408.97 16.2578 409.171 15.859 409.431 15.5264C409.686 15.1937 409.996 14.9339 410.36 14.7471C410.725 14.5602 411.133 14.4668 411.584 14.4668C412.026 14.4668 412.411 14.542 412.739 14.6924C413.072 14.8382 413.359 15.0524 413.601 15.335V11.5H414.865V22H413.703L413.648 21.2207C413.402 21.5215 413.108 21.7493 412.767 21.9043C412.425 22.0592 412.026 22.1367 411.57 22.1367C411.124 22.1367 410.718 22.041 410.354 21.8496C409.993 21.6582 409.686 21.3939 409.431 21.0566C409.175 20.7194 408.977 20.3229 408.836 19.8672C408.695 19.4069 408.624 18.9124 408.624 18.3838V18.2402ZM409.889 18.3838C409.889 18.7438 409.927 19.0856 410.005 19.4092C410.082 19.7327 410.203 20.0176 410.367 20.2637C410.527 20.5098 410.732 20.7057 410.982 20.8516C411.233 20.9928 411.534 21.0635 411.885 21.0635C412.309 21.0635 412.66 20.9678 412.938 20.7764C413.215 20.585 413.437 20.3275 413.601 20.0039V16.5723C413.437 16.2715 413.215 16.0254 412.938 15.834C412.66 15.638 412.313 15.54 411.898 15.54C411.543 15.54 411.238 15.613 410.982 15.7588C410.732 15.9046 410.527 16.1006 410.367 16.3467C410.203 16.5973 410.082 16.8867 410.005 17.2148C409.927 17.5384 409.889 17.8802 409.889 18.2402V18.3838ZM422.132 22C422.082 21.9043 422.041 21.7858 422.009 21.6445C421.981 21.4987 421.961 21.3483 421.947 21.1934C421.82 21.321 421.676 21.4417 421.517 21.5557C421.362 21.6696 421.191 21.7699 421.004 21.8564C420.812 21.943 420.61 22.0114 420.396 22.0615C420.181 22.1117 419.953 22.1367 419.712 22.1367C419.32 22.1367 418.965 22.0798 418.646 21.9658C418.331 21.8519 418.064 21.6969 417.846 21.501C417.622 21.3096 417.449 21.0817 417.326 20.8174C417.208 20.5485 417.148 20.2591 417.148 19.9492C417.148 19.5436 417.228 19.1882 417.388 18.8828C417.552 18.5775 417.782 18.3223 418.078 18.1172C418.374 17.9167 418.73 17.7663 419.145 17.666C419.564 17.5658 420.031 17.5156 420.546 17.5156H421.927V16.9346C421.927 16.7113 421.886 16.5107 421.804 16.333C421.722 16.1553 421.605 16.0026 421.455 15.875C421.305 15.752 421.12 15.6562 420.901 15.5879C420.687 15.5195 420.446 15.4854 420.177 15.4854C419.926 15.4854 419.701 15.5173 419.5 15.5811C419.304 15.6449 419.138 15.7292 419.001 15.834C418.864 15.9388 418.757 16.0641 418.68 16.21C418.607 16.3512 418.57 16.4993 418.57 16.6543H417.299C417.303 16.3854 417.372 16.1211 417.504 15.8613C417.641 15.6016 417.837 15.3669 418.092 15.1572C418.342 14.9521 418.648 14.7858 419.008 14.6582C419.372 14.5306 419.785 14.4668 420.245 14.4668C420.664 14.4668 421.054 14.5192 421.414 14.624C421.774 14.7243 422.086 14.877 422.351 15.082C422.61 15.2917 422.815 15.5514 422.966 15.8613C423.116 16.1712 423.191 16.5335 423.191 16.9482V20.3867C423.191 20.6328 423.214 20.8949 423.26 21.1729C423.305 21.4463 423.369 21.6855 423.451 21.8906V22H422.132ZM419.896 21.0361C420.143 21.0361 420.373 21.0042 420.587 20.9404C420.801 20.8766 420.997 20.7923 421.175 20.6875C421.348 20.5827 421.498 20.4642 421.626 20.332C421.754 20.1953 421.854 20.054 421.927 19.9082V18.4111H420.751C420.313 18.4111 419.931 18.4499 419.603 18.5273C419.279 18.6003 419.021 18.7142 418.83 18.8691C418.693 18.9785 418.589 19.1084 418.516 19.2588C418.447 19.4092 418.413 19.5801 418.413 19.7715C418.413 19.9538 418.443 20.1224 418.502 20.2773C418.566 20.4323 418.659 20.5645 418.782 20.6738C418.905 20.7878 419.06 20.8766 419.247 20.9404C419.434 21.0042 419.65 21.0361 419.896 21.0361ZM430.526 14.4668C430.759 14.4668 431 14.4827 431.251 14.5146C431.506 14.5465 431.698 14.5898 431.825 14.6445L431.654 15.8818C431.408 15.8271 431.174 15.7884 430.95 15.7656C430.731 15.7383 430.501 15.7246 430.26 15.7246C429.95 15.7246 429.67 15.7633 429.419 15.8408C429.168 15.9137 428.95 16.0231 428.763 16.1689C428.594 16.2965 428.446 16.4538 428.318 16.6406C428.195 16.8229 428.093 17.028 428.011 17.2559V22H426.739V14.6035H427.942L427.997 15.5947L428.004 15.7793C428.305 15.3737 428.665 15.0547 429.084 14.8223C429.508 14.5853 429.989 14.4668 430.526 14.4668ZM436.303 18.5479L435.373 19.4434V22H434.102V11.5H435.373V17.9258L436.2 17.0371L438.627 14.6035H440.165L437.171 17.6865L440.623 22H439.017L436.303 18.5479Z" fill="#D9D9D9"/>
<rect y="64" width="238" height="34" rx="8" fill="#141A24"/>
<path d="M78.6045 84.0381C78.6045 83.8877 78.5749 83.7533 78.5156 83.6348C78.4564 83.5117 78.3561 83.4001 78.2148 83.2998C78.0736 83.1995 77.8867 83.1084 77.6543 83.0264C77.4219 82.9398 77.1325 82.8623 76.7861 82.7939C76.3623 82.7074 75.9749 82.6025 75.624 82.4795C75.2777 82.3564 74.9814 82.2083 74.7354 82.0352C74.4847 81.8665 74.291 81.6683 74.1543 81.4404C74.0176 81.208 73.9492 80.9391 73.9492 80.6338C73.9492 80.333 74.0199 80.0527 74.1611 79.793C74.3024 79.5286 74.5007 79.2985 74.7559 79.1025C75.0111 78.9066 75.3141 78.7516 75.665 78.6377C76.0205 78.5238 76.4102 78.4668 76.834 78.4668C77.2897 78.4668 77.6999 78.526 78.0645 78.6445C78.429 78.763 78.7389 78.9271 78.9941 79.1367C79.2493 79.3464 79.4453 79.5924 79.582 79.875C79.7233 80.153 79.7939 80.4538 79.7939 80.7773H78.5293C78.5293 80.6178 78.4883 80.4629 78.4062 80.3125C78.3242 80.1576 78.2103 80.0208 78.0645 79.9023C77.9186 79.7839 77.7409 79.6882 77.5312 79.6152C77.3262 79.5423 77.0938 79.5059 76.834 79.5059C76.5651 79.5059 76.3281 79.5355 76.123 79.5947C75.9225 79.654 75.7562 79.7337 75.624 79.834C75.4873 79.9342 75.3848 80.0505 75.3164 80.1826C75.248 80.3148 75.2139 80.4515 75.2139 80.5928C75.2139 80.7386 75.2412 80.8685 75.2959 80.9824C75.3506 81.0964 75.4463 81.1989 75.583 81.29C75.7152 81.3812 75.8929 81.4632 76.1162 81.5361C76.3441 81.609 76.6312 81.6797 76.9775 81.748C77.4333 81.8438 77.8411 81.9554 78.2012 82.083C78.5612 82.2061 78.8643 82.3542 79.1104 82.5273C79.3564 82.7051 79.5433 82.9102 79.6709 83.1426C79.8031 83.375 79.8691 83.6439 79.8691 83.9492C79.8691 84.2773 79.7939 84.5758 79.6436 84.8447C79.4977 85.1136 79.2926 85.3438 79.0283 85.5352C78.764 85.7266 78.4473 85.8747 78.0781 85.9795C77.709 86.0843 77.3057 86.1367 76.8682 86.1367C76.3669 86.1367 75.9202 86.0706 75.5283 85.9385C75.1364 85.8018 74.806 85.6217 74.5371 85.3984C74.2637 85.1797 74.054 84.9245 73.9082 84.6328C73.7669 84.3411 73.6963 84.0381 73.6963 83.7236H74.9609C74.9792 83.9834 75.0475 84.2021 75.166 84.3799C75.2891 84.5576 75.4417 84.7012 75.624 84.8105C75.8018 84.9199 76 84.9974 76.2188 85.043C76.4375 85.0885 76.654 85.1113 76.8682 85.1113C77.2054 85.1113 77.4993 85.0726 77.75 84.9951C78.0007 84.9131 78.1966 84.8014 78.3379 84.6602C78.4245 84.5736 78.4906 84.4779 78.5361 84.373C78.5817 84.2682 78.6045 84.1566 78.6045 84.0381ZM83.3623 79.7041C83.4626 79.5537 83.5742 79.417 83.6973 79.2939C83.8203 79.1663 83.9502 79.0547 84.0869 78.959C84.3057 78.7995 84.5449 78.6787 84.8047 78.5967C85.069 78.5146 85.3493 78.4714 85.6455 78.4668C86.0329 78.4668 86.3838 78.5238 86.6982 78.6377C87.0173 78.7471 87.2884 78.9202 87.5117 79.1572C87.735 79.3942 87.9059 79.695 88.0244 80.0596C88.1475 80.4196 88.209 80.848 88.209 81.3447V86H86.9443V81.3311C86.9443 81.0394 86.9102 80.7842 86.8418 80.5654C86.7734 80.3421 86.6732 80.1576 86.541 80.0117C86.3997 79.8522 86.222 79.7337 86.0078 79.6562C85.7936 79.5742 85.5475 79.5355 85.2695 79.54C85.0417 79.54 84.8252 79.5719 84.6201 79.6357C84.415 79.6995 84.2259 79.7907 84.0527 79.9092C83.916 80.0003 83.7884 80.1074 83.6699 80.2305C83.556 80.349 83.4535 80.4811 83.3623 80.627V86H82.0977V75.5H83.3623V79.7041ZM95.3662 86C95.3161 85.9043 95.2751 85.7858 95.2432 85.6445C95.2158 85.4987 95.1953 85.3483 95.1816 85.1934C95.054 85.321 94.9105 85.4417 94.751 85.5557C94.596 85.6696 94.4251 85.7699 94.2383 85.8564C94.0469 85.943 93.8441 86.0114 93.6299 86.0615C93.4157 86.1117 93.1878 86.1367 92.9463 86.1367C92.5544 86.1367 92.1989 86.0798 91.8799 85.9658C91.5654 85.8519 91.2988 85.6969 91.0801 85.501C90.8568 85.3096 90.6836 85.0817 90.5605 84.8174C90.4421 84.5485 90.3828 84.2591 90.3828 83.9492C90.3828 83.5436 90.4626 83.1882 90.6221 82.8828C90.7861 82.5775 91.0163 82.3223 91.3125 82.1172C91.6087 81.9167 91.9642 81.7663 92.3789 81.666C92.7982 81.5658 93.2653 81.5156 93.7803 81.5156H95.1611V80.9346C95.1611 80.7113 95.1201 80.5107 95.0381 80.333C94.9561 80.1553 94.8398 80.0026 94.6895 79.875C94.5391 79.752 94.3545 79.6562 94.1357 79.5879C93.9215 79.5195 93.68 79.4854 93.4111 79.4854C93.1605 79.4854 92.9349 79.5173 92.7344 79.5811C92.5384 79.6449 92.3721 79.7292 92.2354 79.834C92.0986 79.9388 91.9915 80.0641 91.9141 80.21C91.8411 80.3512 91.8047 80.4993 91.8047 80.6543H90.5332C90.5378 80.3854 90.6061 80.1211 90.7383 79.8613C90.875 79.6016 91.071 79.3669 91.3262 79.1572C91.5768 78.9521 91.8822 78.7858 92.2422 78.6582C92.6068 78.5306 93.0192 78.4668 93.4795 78.4668C93.8988 78.4668 94.2884 78.5192 94.6484 78.624C95.0085 78.7243 95.3206 78.877 95.585 79.082C95.8447 79.2917 96.0498 79.5514 96.2002 79.8613C96.3506 80.1712 96.4258 80.5335 96.4258 80.9482V84.3867C96.4258 84.6328 96.4486 84.8949 96.4941 85.1729C96.5397 85.4463 96.6035 85.6855 96.6855 85.8906V86H95.3662ZM93.1309 85.0361C93.377 85.0361 93.6071 85.0042 93.8213 84.9404C94.0355 84.8766 94.2314 84.7923 94.4092 84.6875C94.5824 84.5827 94.7327 84.4642 94.8604 84.332C94.988 84.1953 95.0882 84.054 95.1611 83.9082V82.4111H93.9854C93.5479 82.4111 93.165 82.4499 92.8369 82.5273C92.5133 82.6003 92.2559 82.7142 92.0645 82.8691C91.9277 82.9785 91.8229 83.1084 91.75 83.2588C91.6816 83.4092 91.6475 83.5801 91.6475 83.7715C91.6475 83.9538 91.6771 84.1224 91.7363 84.2773C91.8001 84.4323 91.8936 84.5645 92.0166 84.6738C92.1396 84.7878 92.2946 84.8766 92.4814 84.9404C92.6683 85.0042 92.8848 85.0361 93.1309 85.0361ZM98.6748 82.2402C98.6748 81.6888 98.7432 81.1829 98.8799 80.7227C99.0212 80.2578 99.2217 79.859 99.4814 79.5264C99.7367 79.1937 100.047 78.9339 100.411 78.7471C100.776 78.5602 101.184 78.4668 101.635 78.4668C102.077 78.4668 102.462 78.542 102.79 78.6924C103.123 78.8382 103.41 79.0524 103.651 79.335V75.5H104.916V86H103.754L103.699 85.2207C103.453 85.5215 103.159 85.7493 102.817 85.9043C102.476 86.0592 102.077 86.1367 101.621 86.1367C101.174 86.1367 100.769 86.041 100.404 85.8496C100.044 85.6582 99.7367 85.3939 99.4814 85.0566C99.2262 84.7194 99.028 84.3229 98.8867 83.8672C98.7454 83.4069 98.6748 82.9124 98.6748 82.3838V82.2402ZM99.9395 82.3838C99.9395 82.7438 99.9782 83.0856 100.056 83.4092C100.133 83.7327 100.254 84.0176 100.418 84.2637C100.577 84.5098 100.783 84.7057 101.033 84.8516C101.284 84.9928 101.585 85.0635 101.936 85.0635C102.359 85.0635 102.71 84.9678 102.988 84.7764C103.266 84.585 103.487 84.3275 103.651 84.0039V80.5723C103.487 80.2715 103.266 80.0254 102.988 79.834C102.71 79.638 102.364 79.54 101.949 79.54C101.594 79.54 101.288 79.613 101.033 79.7588C100.783 79.9046 100.577 80.1006 100.418 80.3467C100.254 80.5973 100.133 80.8867 100.056 81.2148C99.9782 81.5384 99.9395 81.8802 99.9395 82.2402V82.3838ZM106.967 82.2334C106.967 81.7002 107.044 81.2057 107.199 80.75C107.354 80.2897 107.577 79.891 107.869 79.5537C108.156 79.2165 108.507 78.9521 108.922 78.7607C109.337 78.5648 109.804 78.4668 110.323 78.4668C110.847 78.4668 111.317 78.5648 111.731 78.7607C112.151 78.9521 112.506 79.2165 112.798 79.5537C113.085 79.891 113.306 80.2897 113.461 80.75C113.616 81.2057 113.693 81.7002 113.693 82.2334V82.3838C113.693 82.917 113.616 83.4115 113.461 83.8672C113.306 84.3229 113.085 84.7194 112.798 85.0566C112.506 85.3939 112.153 85.6582 111.738 85.8496C111.324 86.041 110.856 86.1367 110.337 86.1367C109.813 86.1367 109.341 86.041 108.922 85.8496C108.507 85.6582 108.156 85.3939 107.869 85.0566C107.577 84.7194 107.354 84.3229 107.199 83.8672C107.044 83.4115 106.967 82.917 106.967 82.3838V82.2334ZM108.231 82.3838C108.231 82.7484 108.275 83.097 108.361 83.4297C108.448 83.7578 108.58 84.0472 108.758 84.2979C108.931 84.5485 109.15 84.7467 109.414 84.8926C109.678 85.0384 109.986 85.1113 110.337 85.1113C110.683 85.1113 110.986 85.0384 111.246 84.8926C111.51 84.7467 111.731 84.5485 111.909 84.2979C112.082 84.0472 112.212 83.7578 112.299 83.4297C112.385 83.097 112.429 82.7484 112.429 82.3838V82.2334C112.429 81.8734 112.383 81.5293 112.292 81.2012C112.205 80.8685 112.076 80.5768 111.902 80.3262C111.725 80.0755 111.504 79.8773 111.239 79.7314C110.979 79.5811 110.674 79.5059 110.323 79.5059C109.972 79.5059 109.667 79.5811 109.407 79.7314C109.147 79.8773 108.931 80.0755 108.758 80.3262C108.58 80.5768 108.448 80.8685 108.361 81.2012C108.275 81.5293 108.231 81.8734 108.231 82.2334V82.3838ZM116.441 86L114.869 78.6035H115.99L116.852 83.3203L117.002 84.3799L117.187 83.3203L118.369 78.6035H119.183L120.358 83.3203L120.557 84.4824L120.741 83.3203L121.562 78.6035H122.683L121.11 86H120.112L118.957 81.4678L118.766 80.3193L118.581 81.4678L117.439 86H116.441ZM138.815 82.3838C138.815 82.7074 138.79 83.0195 138.74 83.3203C138.695 83.6165 138.626 83.8945 138.535 84.1543C138.412 84.4961 138.25 84.8037 138.05 85.0771C137.854 85.346 137.617 85.5693 137.339 85.7471C137.138 85.8701 136.917 85.9658 136.676 86.0342C136.439 86.1025 136.181 86.1367 135.903 86.1367C135.584 86.1367 135.293 86.098 135.028 86.0205C134.769 85.943 134.534 85.8314 134.324 85.6855C134.224 85.6126 134.128 85.5329 134.037 85.4463C133.946 85.3597 133.859 85.264 133.777 85.1592L133.716 86H132.554V75.5H133.818V79.3965C133.923 79.2643 134.039 79.1458 134.167 79.041C134.295 78.9316 134.431 78.8382 134.577 78.7607C134.759 78.665 134.96 78.5921 135.179 78.542C135.397 78.4919 135.634 78.4668 135.89 78.4668C136.209 78.4668 136.503 78.5101 136.771 78.5967C137.04 78.6833 137.284 78.804 137.503 78.959C137.699 79.1048 137.874 79.2826 138.029 79.4922C138.184 79.6973 138.321 79.9274 138.439 80.1826C138.562 80.4697 138.656 80.7887 138.72 81.1396C138.784 81.486 138.815 81.8529 138.815 82.2402V82.3838ZM137.551 82.2402C137.551 82.0078 137.535 81.7822 137.503 81.5635C137.476 81.3402 137.432 81.1305 137.373 80.9346C137.291 80.693 137.184 80.472 137.052 80.2715C136.92 80.071 136.758 79.9137 136.566 79.7998C136.434 79.7178 136.286 79.654 136.122 79.6084C135.958 79.5628 135.776 79.54 135.575 79.54C135.356 79.54 135.156 79.5697 134.974 79.6289C134.791 79.6836 134.63 79.7611 134.488 79.8613C134.342 79.9661 134.213 80.0892 134.099 80.2305C133.989 80.3672 133.896 80.5176 133.818 80.6816V83.915C133.9 84.0791 133.996 84.2318 134.105 84.373C134.219 84.5098 134.349 84.6305 134.495 84.7354C134.641 84.8402 134.805 84.9222 134.987 84.9814C135.17 85.0361 135.37 85.0635 135.589 85.0635C135.799 85.0635 135.99 85.0384 136.163 84.9883C136.336 84.9336 136.491 84.8561 136.628 84.7559C136.81 84.6283 136.963 84.4665 137.086 84.2705C137.209 84.0745 137.307 83.8558 137.38 83.6143C137.439 83.432 137.482 83.236 137.51 83.0264C137.537 82.8167 137.551 82.6025 137.551 82.3838V82.2402ZM141.153 75.5H144.934V84.9062H147.347V86H141.153V84.9062H143.669V76.6006H141.153V75.5ZM154.237 86L154.162 84.9814C153.916 85.346 153.608 85.6309 153.239 85.8359C152.87 86.0365 152.444 86.1367 151.961 86.1367C151.574 86.1367 151.223 86.0775 150.908 85.959C150.594 85.8359 150.325 85.6468 150.102 85.3916C149.878 85.1364 149.705 84.8128 149.582 84.4209C149.464 84.0244 149.404 83.5505 149.404 82.999V78.6035H150.669V83.0127C150.669 83.4137 150.701 83.7464 150.765 84.0107C150.828 84.2751 150.924 84.4847 151.052 84.6396C151.179 84.7992 151.334 84.9108 151.517 84.9746C151.703 85.0384 151.918 85.0703 152.159 85.0703C152.442 85.0703 152.695 85.0384 152.918 84.9746C153.141 84.9062 153.335 84.8128 153.499 84.6943C153.636 84.5986 153.754 84.4847 153.854 84.3525C153.959 84.2158 154.046 84.0677 154.114 83.9082V78.6035H155.386V86H154.237ZM161.039 86.1367C160.52 86.1367 160.041 86.0479 159.604 85.8701C159.171 85.6924 158.799 85.444 158.489 85.125C158.179 84.806 157.938 84.4277 157.765 83.9902C157.591 83.5527 157.505 83.0765 157.505 82.5615V82.2744C157.505 81.6774 157.601 81.1442 157.792 80.6748C157.983 80.2008 158.239 79.7998 158.558 79.4717C158.872 79.1481 159.23 78.8997 159.631 78.7266C160.036 78.5534 160.451 78.4668 160.875 78.4668C161.408 78.4668 161.873 78.5602 162.27 78.7471C162.671 78.9294 163.003 79.1823 163.268 79.5059C163.532 79.834 163.728 80.2191 163.855 80.6611C163.988 81.1032 164.054 81.5817 164.054 82.0967V82.6641H158.77V82.7119C158.801 83.0719 158.872 83.3887 158.981 83.6621C159.095 83.9355 159.25 84.1771 159.446 84.3867C159.647 84.61 159.888 84.7855 160.171 84.9131C160.453 85.0407 160.766 85.1045 161.107 85.1045C161.559 85.1045 161.96 85.0133 162.311 84.8311C162.661 84.6488 162.953 84.4072 163.186 84.1064L163.958 84.708C163.712 85.0817 163.343 85.4144 162.851 85.7061C162.363 85.9932 161.759 86.1367 161.039 86.1367ZM160.875 79.5059C160.62 79.5059 160.378 79.5537 160.15 79.6494C159.923 79.7406 159.717 79.875 159.535 80.0527C159.353 80.235 159.198 80.4583 159.07 80.7227C158.947 80.9824 158.861 81.2832 158.811 81.625H162.789V81.5635C162.789 81.3356 162.746 81.0918 162.659 80.832C162.573 80.5677 162.452 80.3398 162.297 80.1484C162.142 79.957 161.946 79.8021 161.709 79.6836C161.477 79.5651 161.199 79.5059 160.875 79.5059Z" fill="#BDC9DF"/>
<rect x="268" y="64" width="238" height="34" rx="8" fill="#DDDDDD"/>
<path d="M334.104 84.0381C334.104 83.8877 334.075 83.7533 334.016 83.6348C333.956 83.5117 333.856 83.4001 333.715 83.2998C333.574 83.1995 333.387 83.1084 333.154 83.0264C332.922 82.9398 332.632 82.8623 332.286 82.7939C331.862 82.7074 331.475 82.6025 331.124 82.4795C330.778 82.3564 330.481 82.2083 330.235 82.0352C329.985 81.8665 329.791 81.6683 329.654 81.4404C329.518 81.208 329.449 80.9391 329.449 80.6338C329.449 80.333 329.52 80.0527 329.661 79.793C329.802 79.5286 330.001 79.2985 330.256 79.1025C330.511 78.9066 330.814 78.7516 331.165 78.6377C331.521 78.5238 331.91 78.4668 332.334 78.4668C332.79 78.4668 333.2 78.526 333.564 78.6445C333.929 78.763 334.239 78.9271 334.494 79.1367C334.749 79.3464 334.945 79.5924 335.082 79.875C335.223 80.153 335.294 80.4538 335.294 80.7773H334.029C334.029 80.6178 333.988 80.4629 333.906 80.3125C333.824 80.1576 333.71 80.0208 333.564 79.9023C333.419 79.7839 333.241 79.6882 333.031 79.6152C332.826 79.5423 332.594 79.5059 332.334 79.5059C332.065 79.5059 331.828 79.5355 331.623 79.5947C331.423 79.654 331.256 79.7337 331.124 79.834C330.987 79.9342 330.885 80.0505 330.816 80.1826C330.748 80.3148 330.714 80.4515 330.714 80.5928C330.714 80.7386 330.741 80.8685 330.796 80.9824C330.851 81.0964 330.946 81.1989 331.083 81.29C331.215 81.3812 331.393 81.4632 331.616 81.5361C331.844 81.609 332.131 81.6797 332.478 81.748C332.933 81.8438 333.341 81.9554 333.701 82.083C334.061 82.2061 334.364 82.3542 334.61 82.5273C334.856 82.7051 335.043 82.9102 335.171 83.1426C335.303 83.375 335.369 83.6439 335.369 83.9492C335.369 84.2773 335.294 84.5758 335.144 84.8447C334.998 85.1136 334.793 85.3438 334.528 85.5352C334.264 85.7266 333.947 85.8747 333.578 85.9795C333.209 86.0843 332.806 86.1367 332.368 86.1367C331.867 86.1367 331.42 86.0706 331.028 85.9385C330.636 85.8018 330.306 85.6217 330.037 85.3984C329.764 85.1797 329.554 84.9245 329.408 84.6328C329.267 84.3411 329.196 84.0381 329.196 83.7236H330.461C330.479 83.9834 330.548 84.2021 330.666 84.3799C330.789 84.5576 330.942 84.7012 331.124 84.8105C331.302 84.9199 331.5 84.9974 331.719 85.043C331.938 85.0885 332.154 85.1113 332.368 85.1113C332.705 85.1113 332.999 85.0726 333.25 84.9951C333.501 84.9131 333.697 84.8014 333.838 84.6602C333.924 84.5736 333.991 84.4779 334.036 84.373C334.082 84.2682 334.104 84.1566 334.104 84.0381ZM340.592 76.8125V78.6035H343.408V79.5811H340.592V83.6006C340.592 83.8877 340.628 84.1247 340.701 84.3115C340.774 84.4984 340.874 84.6465 341.002 84.7559C341.13 84.8698 341.275 84.9495 341.439 84.9951C341.608 85.0407 341.786 85.0635 341.973 85.0635C342.109 85.0635 342.251 85.0566 342.396 85.043C342.542 85.0247 342.686 85.0042 342.827 84.9814C342.964 84.9587 343.091 84.9359 343.21 84.9131C343.333 84.8857 343.433 84.863 343.511 84.8447L343.688 85.7402C343.584 85.804 343.456 85.861 343.306 85.9111C343.155 85.9567 342.991 85.9954 342.813 86.0273C342.636 86.0638 342.447 86.0911 342.246 86.1094C342.05 86.1276 341.854 86.1367 341.658 86.1367C341.33 86.1367 341.022 86.0911 340.735 86C340.453 85.9043 340.207 85.7539 339.997 85.5488C339.787 85.3483 339.621 85.0885 339.498 84.7695C339.38 84.446 339.32 84.0563 339.32 83.6006V79.5811H337.379V78.6035H339.32V76.8125H340.592ZM350.866 86C350.816 85.9043 350.775 85.7858 350.743 85.6445C350.716 85.4987 350.695 85.3483 350.682 85.1934C350.554 85.321 350.41 85.4417 350.251 85.5557C350.096 85.6696 349.925 85.7699 349.738 85.8564C349.547 85.943 349.344 86.0114 349.13 86.0615C348.916 86.1117 348.688 86.1367 348.446 86.1367C348.054 86.1367 347.699 86.0798 347.38 85.9658C347.065 85.8519 346.799 85.6969 346.58 85.501C346.357 85.3096 346.184 85.0817 346.061 84.8174C345.942 84.5485 345.883 84.2591 345.883 83.9492C345.883 83.5436 345.963 83.1882 346.122 82.8828C346.286 82.5775 346.516 82.3223 346.812 82.1172C347.109 81.9167 347.464 81.7663 347.879 81.666C348.298 81.5658 348.765 81.5156 349.28 81.5156H350.661V80.9346C350.661 80.7113 350.62 80.5107 350.538 80.333C350.456 80.1553 350.34 80.0026 350.189 79.875C350.039 79.752 349.854 79.6562 349.636 79.5879C349.422 79.5195 349.18 79.4854 348.911 79.4854C348.66 79.4854 348.435 79.5173 348.234 79.5811C348.038 79.6449 347.872 79.7292 347.735 79.834C347.599 79.9388 347.492 80.0641 347.414 80.21C347.341 80.3512 347.305 80.4993 347.305 80.6543H346.033C346.038 80.3854 346.106 80.1211 346.238 79.8613C346.375 79.6016 346.571 79.3669 346.826 79.1572C347.077 78.9521 347.382 78.7858 347.742 78.6582C348.107 78.5306 348.519 78.4668 348.979 78.4668C349.399 78.4668 349.788 78.5192 350.148 78.624C350.508 78.7243 350.821 78.877 351.085 79.082C351.345 79.2917 351.55 79.5514 351.7 79.8613C351.851 80.1712 351.926 80.5335 351.926 80.9482V84.3867C351.926 84.6328 351.949 84.8949 351.994 85.1729C352.04 85.4463 352.104 85.6855 352.186 85.8906V86H350.866ZM348.631 85.0361C348.877 85.0361 349.107 85.0042 349.321 84.9404C349.535 84.8766 349.731 84.7923 349.909 84.6875C350.082 84.5827 350.233 84.4642 350.36 84.332C350.488 84.1953 350.588 84.054 350.661 83.9082V82.4111H349.485C349.048 82.4111 348.665 82.4499 348.337 82.5273C348.013 82.6003 347.756 82.7142 347.564 82.8691C347.428 82.9785 347.323 83.1084 347.25 83.2588C347.182 83.4092 347.147 83.5801 347.147 83.7715C347.147 83.9538 347.177 84.1224 347.236 84.2773C347.3 84.4323 347.394 84.5645 347.517 84.6738C347.64 84.7878 347.795 84.8766 347.981 84.9404C348.168 85.0042 348.385 85.0361 348.631 85.0361ZM354.414 86V78.6035H355.549L355.638 79.6973C355.747 79.5423 355.866 79.401 355.993 79.2734C356.125 79.1413 356.264 79.0273 356.41 78.9316C356.629 78.7858 356.866 78.6742 357.121 78.5967C357.381 78.5146 357.654 78.4714 357.941 78.4668C358.329 78.4668 358.68 78.5215 358.994 78.6309C359.313 78.7402 359.584 78.9111 359.808 79.1436C360.031 79.376 360.202 79.6722 360.32 80.0322C360.443 80.3877 360.505 80.8115 360.505 81.3037V86H359.24V81.3311C359.24 81.0029 359.204 80.7249 359.131 80.4971C359.058 80.2692 358.951 80.0846 358.81 79.9434C358.664 79.8021 358.486 79.6995 358.276 79.6357C358.071 79.5719 357.834 79.54 357.565 79.54C357.333 79.54 357.117 79.5742 356.916 79.6426C356.715 79.7064 356.531 79.7952 356.362 79.9092C356.226 80.0094 356.098 80.1257 355.979 80.2578C355.866 80.39 355.765 80.5358 355.679 80.6953V86H354.414ZM362.583 82.2402C362.583 81.6888 362.651 81.1829 362.788 80.7227C362.929 80.2578 363.13 79.859 363.39 79.5264C363.645 79.1937 363.955 78.9339 364.319 78.7471C364.684 78.5602 365.092 78.4668 365.543 78.4668C365.985 78.4668 366.37 78.542 366.698 78.6924C367.031 78.8382 367.318 79.0524 367.56 79.335V75.5H368.824V86H367.662L367.607 85.2207C367.361 85.5215 367.067 85.7493 366.726 85.9043C366.384 86.0592 365.985 86.1367 365.529 86.1367C365.083 86.1367 364.677 86.041 364.312 85.8496C363.952 85.6582 363.645 85.3939 363.39 85.0566C363.134 84.7194 362.936 84.3229 362.795 83.8672C362.654 83.4069 362.583 82.9124 362.583 82.3838V82.2402ZM363.848 82.3838C363.848 82.7438 363.886 83.0856 363.964 83.4092C364.041 83.7327 364.162 84.0176 364.326 84.2637C364.486 84.5098 364.691 84.7057 364.941 84.8516C365.192 84.9928 365.493 85.0635 365.844 85.0635C366.268 85.0635 366.618 84.9678 366.896 84.7764C367.174 84.585 367.396 84.3275 367.56 84.0039V80.5723C367.396 80.2715 367.174 80.0254 366.896 79.834C366.618 79.638 366.272 79.54 365.857 79.54C365.502 79.54 365.197 79.613 364.941 79.7588C364.691 79.9046 364.486 80.1006 364.326 80.3467C364.162 80.5973 364.041 80.8867 363.964 81.2148C363.886 81.5384 363.848 81.8802 363.848 82.2402V82.3838ZM376.091 86C376.041 85.9043 376 85.7858 375.968 85.6445C375.94 85.4987 375.92 85.3483 375.906 85.1934C375.779 85.321 375.635 85.4417 375.476 85.5557C375.321 85.6696 375.15 85.7699 374.963 85.8564C374.771 85.943 374.569 86.0114 374.354 86.0615C374.14 86.1117 373.912 86.1367 373.671 86.1367C373.279 86.1367 372.924 86.0798 372.604 85.9658C372.29 85.8519 372.023 85.6969 371.805 85.501C371.581 85.3096 371.408 85.0817 371.285 84.8174C371.167 84.5485 371.107 84.2591 371.107 83.9492C371.107 83.5436 371.187 83.1882 371.347 82.8828C371.511 82.5775 371.741 82.3223 372.037 82.1172C372.333 81.9167 372.689 81.7663 373.104 81.666C373.523 81.5658 373.99 81.5156 374.505 81.5156H375.886V80.9346C375.886 80.7113 375.845 80.5107 375.763 80.333C375.681 80.1553 375.564 80.0026 375.414 79.875C375.264 79.752 375.079 79.6562 374.86 79.5879C374.646 79.5195 374.405 79.4854 374.136 79.4854C373.885 79.4854 373.66 79.5173 373.459 79.5811C373.263 79.6449 373.097 79.7292 372.96 79.834C372.823 79.9388 372.716 80.0641 372.639 80.21C372.566 80.3512 372.529 80.4993 372.529 80.6543H371.258C371.262 80.3854 371.331 80.1211 371.463 79.8613C371.6 79.6016 371.796 79.3669 372.051 79.1572C372.301 78.9521 372.607 78.7858 372.967 78.6582C373.331 78.5306 373.744 78.4668 374.204 78.4668C374.623 78.4668 375.013 78.5192 375.373 78.624C375.733 78.7243 376.045 78.877 376.31 79.082C376.569 79.2917 376.774 79.5514 376.925 79.8613C377.075 80.1712 377.15 80.5335 377.15 80.9482V84.3867C377.15 84.6328 377.173 84.8949 377.219 85.1729C377.264 85.4463 377.328 85.6855 377.41 85.8906V86H376.091ZM373.855 85.0361C374.102 85.0361 374.332 85.0042 374.546 84.9404C374.76 84.8766 374.956 84.7923 375.134 84.6875C375.307 84.5827 375.457 84.4642 375.585 84.332C375.713 84.1953 375.813 84.054 375.886 83.9082V82.4111H374.71C374.272 82.4111 373.89 82.4499 373.562 82.5273C373.238 82.6003 372.98 82.7142 372.789 82.8691C372.652 82.9785 372.548 83.1084 372.475 83.2588C372.406 83.4092 372.372 83.5801 372.372 83.7715C372.372 83.9538 372.402 84.1224 372.461 84.2773C372.525 84.4323 372.618 84.5645 372.741 84.6738C372.864 84.7878 373.019 84.8766 373.206 84.9404C373.393 85.0042 373.609 85.0361 373.855 85.0361ZM384.485 78.4668C384.718 78.4668 384.959 78.4827 385.21 78.5146C385.465 78.5465 385.657 78.5898 385.784 78.6445L385.613 79.8818C385.367 79.8271 385.132 79.7884 384.909 79.7656C384.69 79.7383 384.46 79.7246 384.219 79.7246C383.909 79.7246 383.629 79.7633 383.378 79.8408C383.127 79.9137 382.909 80.0231 382.722 80.1689C382.553 80.2965 382.405 80.4538 382.277 80.6406C382.154 80.8229 382.052 81.028 381.97 81.2559V86H380.698V78.6035H381.901L381.956 79.5947L381.963 79.7793C382.264 79.3737 382.624 79.0547 383.043 78.8223C383.467 78.5853 383.948 78.4668 384.485 78.4668ZM387.808 82.2402C387.808 81.6888 387.876 81.1829 388.013 80.7227C388.154 80.2578 388.354 79.859 388.614 79.5264C388.869 79.1937 389.179 78.9339 389.544 78.7471C389.909 78.5602 390.316 78.4668 390.768 78.4668C391.21 78.4668 391.595 78.542 391.923 78.6924C392.256 78.8382 392.543 79.0524 392.784 79.335V75.5H394.049V86H392.887L392.832 85.2207C392.586 85.5215 392.292 85.7493 391.95 85.9043C391.608 86.0592 391.21 86.1367 390.754 86.1367C390.307 86.1367 389.902 86.041 389.537 85.8496C389.177 85.6582 388.869 85.3939 388.614 85.0566C388.359 84.7194 388.161 84.3229 388.02 83.8672C387.878 83.4069 387.808 82.9124 387.808 82.3838V82.2402ZM389.072 82.3838C389.072 82.7438 389.111 83.0856 389.188 83.4092C389.266 83.7327 389.387 84.0176 389.551 84.2637C389.71 84.5098 389.915 84.7057 390.166 84.8516C390.417 84.9928 390.717 85.0635 391.068 85.0635C391.492 85.0635 391.843 84.9678 392.121 84.7764C392.399 84.585 392.62 84.3275 392.784 84.0039V80.5723C392.62 80.2715 392.399 80.0254 392.121 79.834C391.843 79.638 391.497 79.54 391.082 79.54C390.727 79.54 390.421 79.613 390.166 79.7588C389.915 79.9046 389.71 80.1006 389.551 80.3467C389.387 80.5973 389.266 80.8867 389.188 81.2148C389.111 81.5384 389.072 81.8802 389.072 82.2402V82.3838ZM405.062 75.5H408.842V84.9062H411.255V86H405.062V84.9062H407.577V76.6006H405.062V75.5ZM413.47 78.6035H417.25V84.9062H419.663V86H413.47V84.9062H415.985V79.7041H413.47V78.6035ZM415.821 76.6621C415.821 76.5527 415.837 76.4502 415.869 76.3545C415.906 76.2588 415.96 76.1768 416.033 76.1084C416.092 76.0492 416.168 76.0036 416.259 75.9717C416.354 75.9352 416.462 75.917 416.58 75.917C416.699 75.917 416.803 75.9352 416.895 75.9717C416.986 76.0036 417.061 76.0492 417.12 76.1084C417.193 76.1722 417.248 76.252 417.284 76.3477C417.321 76.4434 417.339 76.5482 417.339 76.6621C417.339 76.8672 417.275 77.0381 417.147 77.1748C417.02 77.3115 416.831 77.3799 416.58 77.3799C416.325 77.3799 416.133 77.3115 416.006 77.1748C415.883 77.0381 415.821 76.8672 415.821 76.6621ZM421.447 82.2402C421.447 81.6888 421.513 81.1829 421.646 80.7227C421.782 80.2578 421.978 79.859 422.233 79.5264C422.489 79.1937 422.799 78.9339 423.163 78.7471C423.528 78.5602 423.94 78.4668 424.4 78.4668C424.697 78.4668 424.968 78.501 425.214 78.5693C425.465 78.6377 425.69 78.738 425.891 78.8701C426 78.9385 426.103 79.0182 426.198 79.1094C426.299 79.2005 426.392 79.3008 426.479 79.4102L426.54 78.6035H427.688V85.8428C427.688 86.3304 427.611 86.7633 427.456 87.1416C427.306 87.5199 427.094 87.8411 426.82 88.1055C426.542 88.3698 426.212 88.5703 425.829 88.707C425.446 88.8438 425.022 88.9121 424.558 88.9121C424.366 88.9121 424.147 88.8893 423.901 88.8438C423.655 88.8027 423.407 88.7321 423.156 88.6318C422.901 88.5361 422.655 88.4062 422.418 88.2422C422.186 88.0781 421.985 87.8753 421.816 87.6338L422.473 86.875C422.628 87.0618 422.787 87.2191 422.951 87.3467C423.115 87.4788 423.282 87.5837 423.45 87.6611C423.619 87.7386 423.787 87.7933 423.956 87.8252C424.125 87.8617 424.293 87.8799 424.462 87.8799C424.763 87.8799 425.034 87.8366 425.275 87.75C425.517 87.6634 425.724 87.5358 425.897 87.3672C426.066 87.2031 426.196 86.998 426.287 86.752C426.378 86.5059 426.424 86.2233 426.424 85.9043V85.2686C426.328 85.3779 426.226 85.4782 426.116 85.5693C426.011 85.6605 425.897 85.7402 425.774 85.8086C425.583 85.9134 425.371 85.9932 425.139 86.0479C424.906 86.1071 424.656 86.1367 424.387 86.1367C423.936 86.1367 423.528 86.041 423.163 85.8496C422.799 85.6582 422.491 85.3939 422.24 85.0566C421.985 84.7194 421.789 84.3229 421.652 83.8672C421.516 83.4069 421.447 82.9124 421.447 82.3838V82.2402ZM422.712 82.3838C422.712 82.7438 422.748 83.0856 422.821 83.4092C422.899 83.7327 423.02 84.0176 423.184 84.2637C423.343 84.5098 423.548 84.7057 423.799 84.8516C424.049 84.9928 424.35 85.0635 424.701 85.0635C424.92 85.0635 425.116 85.0384 425.289 84.9883C425.467 84.9336 425.626 84.8584 425.768 84.7627C425.904 84.667 426.027 84.5531 426.137 84.4209C426.246 84.2887 426.342 84.1429 426.424 83.9834V80.5928C426.342 80.4378 426.246 80.2965 426.137 80.1689C426.027 80.0413 425.902 79.9297 425.761 79.834C425.619 79.7428 425.462 79.6722 425.289 79.6221C425.116 79.5674 424.924 79.54 424.715 79.54C424.359 79.54 424.054 79.613 423.799 79.7588C423.548 79.9046 423.343 80.1006 423.184 80.3467C423.02 80.5973 422.899 80.8867 422.821 81.2148C422.748 81.5384 422.712 81.8802 422.712 82.2402V82.3838ZM431.353 79.7041C431.453 79.5537 431.564 79.417 431.688 79.2939C431.811 79.1663 431.94 79.0547 432.077 78.959C432.296 78.7995 432.535 78.6787 432.795 78.5967C433.059 78.5146 433.34 78.4714 433.636 78.4668C434.023 78.4668 434.374 78.5238 434.688 78.6377C435.007 78.7471 435.279 78.9202 435.502 79.1572C435.725 79.3942 435.896 79.695 436.015 80.0596C436.138 80.4196 436.199 80.848 436.199 81.3447V86H434.935V81.3311C434.935 81.0394 434.9 80.7842 434.832 80.5654C434.764 80.3421 434.663 80.1576 434.531 80.0117C434.39 79.8522 434.212 79.7337 433.998 79.6562C433.784 79.5742 433.538 79.5355 433.26 79.54C433.032 79.54 432.815 79.5719 432.61 79.6357C432.405 79.6995 432.216 79.7907 432.043 79.9092C431.906 80.0003 431.779 80.1074 431.66 80.2305C431.546 80.349 431.444 80.4811 431.353 80.627V86H430.088V75.5H431.353V79.7041ZM441.49 76.8125V78.6035H444.307V79.5811H441.49V83.6006C441.49 83.8877 441.527 84.1247 441.6 84.3115C441.673 84.4984 441.773 84.6465 441.9 84.7559C442.028 84.8698 442.174 84.9495 442.338 84.9951C442.507 85.0407 442.684 85.0635 442.871 85.0635C443.008 85.0635 443.149 85.0566 443.295 85.043C443.441 85.0247 443.584 85.0042 443.726 84.9814C443.862 84.9587 443.99 84.9359 444.108 84.9131C444.231 84.8857 444.332 84.863 444.409 84.8447L444.587 85.7402C444.482 85.804 444.354 85.861 444.204 85.9111C444.054 85.9567 443.89 85.9954 443.712 86.0273C443.534 86.0638 443.345 86.0911 443.145 86.1094C442.949 86.1276 442.753 86.1367 442.557 86.1367C442.229 86.1367 441.921 86.0911 441.634 86C441.351 85.9043 441.105 85.7539 440.896 85.5488C440.686 85.3483 440.52 85.0885 440.396 84.7695C440.278 84.446 440.219 84.0563 440.219 83.6006V79.5811H438.277V78.6035H440.219V76.8125H441.49Z" fill="#353535"/>
</svg>
